<?xml version="1.0" encoding="utf-8"?>
<!-- Generator: Adobe Illustrator 21.0.0, SVG Export Plug-In . SVG Version: 6.00 Build 0)  -->
<svg version="1.1" xmlns="http://www.w3.org/2000/svg" xmlns:xlink="http://www.w3.org/1999/xlink" x="0px" y="0px" width="64px"
	 height="64px" viewBox="0 0 64 64" style="enable-background:new 0 0 64 64;" xml:space="preserve">
<style type="text/css">
	.st0{fill:#E9F6FD;}
	.st1{fill:none;stroke:#E9F6FD;stroke-width:1.5;stroke-linecap:round;stroke-linejoin:round;stroke-miterlimit:10;}
	.st2{fill:none;stroke:#E9F6FD;stroke-width:3;stroke-linejoin:round;stroke-miterlimit:10;}
	.st3{fill:none;stroke:#E9F6FD;stroke-width:1.5;stroke-linejoin:round;stroke-miterlimit:10;}
	.st4{fill:none;stroke:#8979EA;stroke-width:1.5;stroke-linecap:round;stroke-linejoin:round;stroke-miterlimit:10;}
	.st5{fill:#8979EA;}
	.st6{fill:none;stroke:#E9F6FD;stroke-width:3;stroke-miterlimit:10;}
	.st7{fill:none;stroke:#E86F69;stroke-width:1.5;stroke-miterlimit:10;}
	.st8{fill:none;stroke:#E86F69;stroke-width:1.5;stroke-linecap:round;stroke-linejoin:round;}
	.st9{fill:#FFFFFF;stroke:#E86F69;stroke-width:1.5;stroke-linecap:round;stroke-linejoin:round;}
	.st10{fill:none;stroke:#6E6E6E;stroke-width:1.5285;stroke-linecap:round;stroke-linejoin:round;stroke-miterlimit:10;}
	.st11{fill:#E86F69;}
</style>
<g id="Layer_4">
</g>
<g id="Layer_7">
</g>
<g id="Layer_11">
</g>
<g id="Layer_1">
	<path class="st0" d="M19.9,32.1l-2.6-1.7c7.5-0.3,11-6.3,11-11.6c0-5.4-4.5-9.7-9.4-9.7l1-0.8c6.6,0,11.3,3.3,11.3,10.4
		C31.4,25.6,26.7,32.1,19.9,32.1z"/>
	<path class="st1" d="M25.6,36.8h7.6c2.6,0,5,1.9,5,4.5l3.1,21"/>
	<path class="st0" d="M43.9,25.4L41.7,24c6.3-0.3,9.3-5.3,9.3-9.7c0-4.5-3.8-8.1-7.9-8.1L44,5.5c5.5,0,9.5,2.8,9.5,8.8
		C53.5,20,49.6,25.4,43.9,25.4z"/>
	<path class="st1" d="M49.3,28.9H55c2.1,0,4.1,1.6,4.1,3.7l2.3,17.6"/>
	<ellipse class="st5" cx="21.4" cy="51.7" rx="1.3" ry="1.2"/>
	<ellipse class="st5" cx="21.4" cy="46.8" rx="1.3" ry="1.2"/>
	<path class="st4" d="M31.4,19.1c0,5.9-3.9,12.6-9.8,12.6s-9.8-6.7-9.8-12.6s3.9-10.8,9.8-10.8S31.4,13.2,31.4,19.1z"/>
	<path class="st4" d="M42.8,62.7l-3.5-22.8c0-2.6-2.1-4.6-4.6-4.6h-8.8l-4.4,5.8L17,35.2H9.2c-2.6,0-4.6,2.1-4.6,4.6L1,62.7
		C1,62.7,42.8,62.6,42.8,62.7z"/>
	<path class="st4" d="M53.4,14.8c0,5-3.3,10.5-8.2,10.5S37,19.8,37,14.8s3.3-9,8.2-9S53.4,9.8,53.4,14.8z"/>
	<path class="st4" d="M31,32.5l0-0.4c0-2.1,1.7-3.9,3.9-3.9h6.6l3.7,4.9l3.7-4.9h7.3c2.1,0,3.9,1.7,3.9,3.9l2.5,18.3H43.8"/>
</g>
<g id="Layer_2">
</g>
<g id="Layer_3">
</g>
<g id="Layer_5">
</g>
<g id="Layer_6">
</g>
<g id="Layer_8">
</g>
<g id="Layer_9">
</g>
<g id="Layer_10">
</g>
<g id="Layer_12">
</g>
<g id="Layer_13">
</g>
<g id="Layer_14">
</g>
</svg>
