<?xml version="1.0" encoding="utf-8"?>
<!-- Generator: Adobe Illustrator 19.2.1, SVG Export Plug-In . SVG Version: 6.00 Build 0)  -->
<svg version="1.1" xmlns="http://www.w3.org/2000/svg" xmlns:xlink="http://www.w3.org/1999/xlink" x="0px" y="0px" width="39px"
	 height="33px" viewBox="0 0 39 33" style="enable-background:new 0 0 39 33;" xml:space="preserve">
<style type="text/css">
	.st0{fill:none;stroke:#E9F6FD;stroke-width:1.5;stroke-linecap:round;stroke-linejoin:round;stroke-miterlimit:10;}
	.st1{fill:#E9F6FD;}
	.st2{fill:none;stroke:#E9F6FD;stroke-width:1.5;stroke-linejoin:round;stroke-miterlimit:10;}
	.st3{fill:none;stroke:#8979EA;stroke-width:1.5;stroke-linecap:round;stroke-linejoin:round;stroke-miterlimit:10;}
	.st4{fill:#8979EA;}
	.st5{fill:none;stroke:#E9F6FD;stroke-width:1.5;stroke-miterlimit:10;}
	.st6{fill:none;stroke:#E86F69;stroke-width:1.5;stroke-miterlimit:10;}
	.st7{fill:none;stroke:#E86F69;stroke-width:1.5;stroke-linecap:round;stroke-linejoin:round;}
	.st8{fill:#FFFFFF;stroke:#E86F69;stroke-width:1.5;stroke-linecap:round;stroke-linejoin:round;}
	.st9{fill:none;stroke:#6E6E6E;stroke-width:1.5285;stroke-linecap:round;stroke-linejoin:round;stroke-miterlimit:10;}
	.st10{fill:#E86F69;}
</style>
<g id="Layer_4">
</g>
<g id="Layer_7">
</g>
<g id="Layer_11">
</g>
<g id="Layer_1">
</g>
<g id="Layer_2">
</g>
<g id="Layer_3">
</g>
<g id="Layer_5">
</g>
<g id="Layer_6">
</g>
<g id="Layer_8">
</g>
<g id="Layer_9">
</g>
<g id="Layer_10">
</g>
<g id="Layer_12">
</g>
<g id="Layer_13">
</g>
<g id="Layer_14">
	<g>
		<path class="st7" d="M19.6,5.2c0,0-2.8-4.9-7.5-3.6c-0.9,0.3-1.8,0.6-2.8,1.5C8.8,3.5,8.5,4,8.3,4.4c-3.2,5.7,5.8,13.1,11.3,17"/>
		<path class="st7" d="M19.6,5.2c0,0,2.8-4.9,7.5-3.6C28,1.8,29,2.1,29.9,3.1c0.4,0.4,0.7,0.9,1,1.3c3.2,5.7-5.8,13.1-11.3,17"/>
	</g>
	<g>
		<path class="st7" d="M14.4,25.6c-2.5-1.4-3.1-1.4-3.6-2.5s-0.9-1.8-0.9-1.8c-0.3-0.8,0-1.4,0.6-1.6c0.8-0.3,1.2,0.6,1.6,1.5
			c0.7,1.3,0.8,1.4,2.4,2c1.7,0.8,3,1.4,3.3,3.6c0,0.2,0,0.4,0,0.6c0,2.2,0,4.4,0,4.4h-4.3c0,0,0.2-1.9-0.4-3.1
			c-0.5-1.1-2.4-1.7-3.4-2.4c-0.9-0.6-3.7-6.2-4.3-8c-0.2-0.6,0.9-1,1.5-0.9c0.7,0,2.2,2.9,2.8,3.6"/>
	</g>
	<g>
		<path class="st7" d="M25,25.6c2.5-1.4,3.1-1.4,3.6-2.5c0.5-1.1,0.9-1.8,0.9-1.8c0.3-0.8,0-1.4-0.6-1.6c-0.8-0.3-1.2,0.6-1.6,1.5
			c-0.7,1.3-0.8,1.4-2.4,2c-1.7,0.8-3,1.4-3.3,3.6c0,0.2,0,0.4,0,0.6c0,2.2,0,4.4,0,4.4h4.3c0,0-0.2-1.9,0.4-3.1
			c0.5-1.1,2.4-1.7,3.4-2.4c0.9-0.6,3.7-6.2,4.3-8c0.2-0.6-0.9-1-1.5-0.9c-0.7,0-2.2,2.9-2.8,3.6"/>
	</g>
</g>
</svg>
