<?xml version="1.0" encoding="utf-8"?>
<!-- Generator: Adobe Illustrator 19.2.1, SVG Export Plug-In . SVG Version: 6.00 Build 0)  -->
<svg version="1.1" xmlns="http://www.w3.org/2000/svg" xmlns:xlink="http://www.w3.org/1999/xlink" x="0px" y="0px" width="64px"
	 height="64px" viewBox="0 0 64 64" style="enable-background:new 0 0 64 64;" xml:space="preserve">
<style type="text/css">
	.st0{fill:none;stroke:#E9F6FD;stroke-width:1.5;stroke-linecap:round;stroke-linejoin:round;stroke-miterlimit:10;}
	.st1{fill:#E9F6FD;}
	.st2{fill:none;stroke:#E9F6FD;stroke-width:1.5;stroke-linejoin:round;stroke-miterlimit:10;}
	.st3{fill:none;stroke:#8979EA;stroke-width:1.5;stroke-linecap:round;stroke-linejoin:round;stroke-miterlimit:10;}
	.st4{fill:#8979EA;}
	.st5{fill:none;stroke:#E9F6FD;stroke-width:1.5;stroke-miterlimit:10;}
	.st6{fill:none;stroke:#E86F69;stroke-width:1.5;stroke-miterlimit:10;}
	.st7{fill:none;stroke:#E86F69;stroke-width:1.5;stroke-linecap:round;stroke-linejoin:round;}
	.st8{fill:#FFFFFF;stroke:#E86F69;stroke-width:1.5;stroke-linecap:round;stroke-linejoin:round;}
	.st9{fill:none;stroke:#6E6E6E;stroke-width:1.5285;stroke-linecap:round;stroke-linejoin:round;stroke-miterlimit:10;}
	.st10{fill:#E86F69;}
</style>
<g id="Layer_4">
</g>
<g id="Layer_7">
</g>
<g id="Layer_11">
</g>
<g id="Layer_1">
</g>
<g id="Layer_2">
</g>
<g id="Layer_3">
</g>
<g id="Layer_5">
</g>
<g id="Layer_6">
</g>
<g id="Layer_8">
</g>
<g id="Layer_9">
</g>
<g id="Layer_10">
</g>
<g id="Layer_12">
</g>
<g id="Layer_13">
</g>
<g id="Layer_14">
	<path class="st1" d="M58.4,54.1c-0.6,0-0.9,0.2-0.9-0.4s0.1-0.3,0.6-0.3c0.6,0,1.4-0.9,1.4-1.5V16c0-0.6-0.8-1.2-1.3-1.2
		c-0.6,0-0.7,0-0.7-0.5s1,0.2,1.5,0.2c1.7,0,3,0.1,3,1.8v35.3C62.1,53.2,60.1,54.1,58.4,54.1z"/>
	
		<rect x="0.9" y="20.1" transform="matrix(1 -1.396262e-03 1.396262e-03 1 -3.361902e-02 4.442514e-02)" class="st3" width="61.8" height="7.9"/>
	<path id="_Rectangle__3_" class="st3" d="M3,14L60.6,14c1.2,0,2.1,1,2.1,2.1l0,35.4c0,1.2-1,2.1-2.1,2.1L3,53.7
		c-1.2,0-2.1-1-2.1-2.1l0-35.4C0.9,15,1.8,14.1,3,14z"/>
	
		<rect x="6.8" y="35.3" transform="matrix(1 -1.396262e-03 1.396262e-03 1 -5.266725e-02 4.444181e-02)" class="st3" width="50.1" height="4.8"/>
</g>
</svg>
