<?xml version="1.0" encoding="utf-8"?>
<!-- Generator: Adobe Illustrator 19.2.1, SVG Export Plug-In . SVG Version: 6.00 Build 0)  -->
<svg version="1.1" xmlns="http://www.w3.org/2000/svg" xmlns:xlink="http://www.w3.org/1999/xlink" x="0px" y="0px" width="64px"
	 height="64px" viewBox="0 0 64 64" style="enable-background:new 0 0 64 64;" xml:space="preserve">
<style type="text/css">
	.st0{fill:none;stroke:#E9F6FD;stroke-width:1.5;stroke-linecap:round;stroke-linejoin:round;stroke-miterlimit:10;}
	.st1{fill:#E9F6FD;}
	.st2{fill:none;stroke:#E9F6FD;stroke-width:1.5;stroke-linejoin:round;stroke-miterlimit:10;}
	.st3{fill:none;stroke:#8979EA;stroke-width:1.5;stroke-linecap:round;stroke-linejoin:round;stroke-miterlimit:10;}
	.st4{fill:#8979EA;}
	.st5{fill:none;stroke:#E9F6FD;stroke-width:1.5;stroke-miterlimit:10;}
	.st6{fill:none;stroke:#E86F69;stroke-width:1.5;stroke-miterlimit:10;}
	.st7{fill:none;stroke:#E86F69;stroke-width:1.5;stroke-linecap:round;stroke-linejoin:round;}
	.st8{fill:#FFFFFF;stroke:#E86F69;stroke-width:1.5;stroke-linecap:round;stroke-linejoin:round;}
	.st9{fill:none;stroke:#6E6E6E;stroke-width:1.5285;stroke-linecap:round;stroke-linejoin:round;stroke-miterlimit:10;}
	.st10{fill:#E86F69;}
</style>
<g id="Layer_4">
</g>
<g id="Layer_7">
</g>
<g id="Layer_11">
</g>
<g id="Layer_1">
	<line id="XMLID_15_" class="st2" x1="40.3" y1="8.4" x2="40.3" y2="63.1"/>
	<path class="st3" d="M35.1,40.8H26c-0.3,0-0.6-0.3-0.6-0.6v-3.1c0-0.3,0.3-0.6,0.6-0.6h9.1c0.3,0,0.6,0.3,0.6,0.6v3.1
		C35.7,40.5,35.4,40.8,35.1,40.8z"/>
	<path class="st3" d="M21.8,40.8h-5.7c-0.3,0-0.6-0.3-0.6-0.6v-3.1c0-0.3,0.3-0.6,0.6-0.6h5.7c0.3,0,0.6,0.3,0.6,0.6v3.1
		C22.4,40.5,22.2,40.8,21.8,40.8z"/>
	<path class="st3" d="M35,30.1H16.1c-0.3,0-0.6-0.3-0.6-0.6v-3.1c0-0.3,0.3-0.6,0.6-0.6H35c0.3,0,0.6,0.3,0.6,0.6v3.1
		C35.6,29.9,35.4,30.1,35,30.1z"/>
	<line class="st3" x1="20.3" y1="47.5" x2="34.7" y2="47.5"/>
	<line class="st3" x1="15.5" y1="20.2" x2="28.3" y2="20.2"/>
	<ellipse class="st4" cx="16.6" cy="47.5" rx="1.1" ry="1.1"/>
	<line class="st3" x1="20.3" y1="53.9" x2="34.7" y2="53.9"/>
	<path class="st3" d="M44.1,31.5h1.9c0.3,0,0.6,0.3,0.6,0.6v3.1c0,0.3-0.3,0.6-0.6,0.6h-1.9"/>
	<path class="st3" d="M44.2,20.8h1.7c0.3,0,0.6,0.3,0.6,0.6v3.1c0,0.3-0.3,0.6-0.6,0.6h-1.7"/>
	<line class="st3" x1="44.8" y1="42.5" x2="45.6" y2="42.5"/>
	<line class="st3" x1="44.8" y1="48.9" x2="45.6" y2="48.9"/>
	<ellipse class="st4" cx="16.6" cy="53.9" rx="1.1" ry="1.1"/>
	<line class="st3" x1="9.8" y1="13.6" x2="41.2" y2="13.6"/>
	<line class="st3" x1="44.3" y1="11.9" x2="46.2" y2="11.9"/>
	<g id="XMLID_1_">
		<g>
			<path class="st4" d="M40.9,9v53.5H10.3V9H40.9 M41.5,7.5H9.7c-0.5,0-0.9,0.4-0.9,0.9v54.7c0,0.5,0.4,0.9,0.9,0.9h31.8
				c0.5,0,0.9-0.4,0.9-0.9V8.4C42.4,7.9,42,7.5,41.5,7.5L41.5,7.5z"/>
		</g>
	</g>
	<line class="st3" x1="44.4" y1="7.2" x2="51.7" y2="7.2"/>
	<path id="XMLID_2_" class="st3" d="M18.6,4.9v-3c0-0.5,0.4-0.9,0.9-0.9h3.8h28c0.5,0,0.9,0.4,0.9,0.9v54.8c0,0.5-0.4,0.9-0.9,0.9
		h-6.6"/>
</g>
<g id="Layer_2">
</g>
<g id="Layer_3">
</g>
<g id="Layer_5">
</g>
<g id="Layer_6">
</g>
<g id="Layer_8">
</g>
<g id="Layer_9">
</g>
<g id="Layer_10">
</g>
<g id="Layer_12">
</g>
<g id="Layer_13">
</g>
<g id="Layer_14">
</g>
</svg>
