<?xml version="1.0" encoding="UTF-8" standalone="no"?>
<svg width="61px" height="65px" viewBox="0 0 61 65" version="1.1" xmlns="http://www.w3.org/2000/svg" xmlns:xlink="http://www.w3.org/1999/xlink">
    <!-- Generator: Sketch 39.1 (31720) - http://www.bohemiancoding.com/sketch -->
    <title>Page 1</title>
    <desc>Created with Sketch.</desc>
    <defs></defs>
    <g id="Page-1" stroke="none" stroke-width="1" fill="none" fill-rule="evenodd" stroke-linecap="round" stroke-linejoin="round">
        <g id="Partners-Desktop" transform="translate(-244.000000, -558.000000)" stroke="#E86F69" stroke-width="2.5">
            <g id="Page-1" transform="translate(246.000000, 560.000000)">
                <path d="M4.73995068,53.9485846 C4.73995068,58.1860462 8.1857863,61.6334051 12.4213753,61.6334051 L49.623211,61.6334051 C53.8588,61.6334051 57.3046356,58.1860462 57.3046356,53.9485846 L57.3046356,7.87940513 C57.2998685,3.64591795 53.8548274,0.198558974 49.6192384,0.198558974 L12.4166082,0.198558974 C8.18101918,0.198558974 4.73597808,3.64591795 4.73597808,7.88337949" id="Stroke-1"></path>
                <path d="M26.1540274,23.0540641 C26.1540274,20.0001667 28.6281644,17.5249359 31.6807123,17.5249359 C34.7332603,17.5249359 37.2073973,20.0001667 37.2073973,23.0540641 C37.2073973,26.1079615 34.7332603,28.5831923 31.6807123,28.5831923 C28.6281644,28.5831923 26.1540274,26.1079615 26.1540274,23.0540641 L26.1540274,23.0540641 Z" id="Stroke-3"></path>
                <path d="M31.6807123,32.2840359 C24.882,32.2840359 19.3712055,36.0350359 19.3712055,40.6619846 L19.3712055,43.6697795 C19.3712055,44.0219077 19.6564384,44.3072667 20.0076164,44.3072667 L43.3538082,44.3072667 C43.7049863,44.3072667 43.9902192,44.0219077 43.9902192,43.6697795 L43.9902192,40.6619846 C43.9902192,36.0350359 38.4794247,32.2840359 31.6807123,32.2840359 L31.6807123,32.2840359 Z" id="Stroke-5"></path>
                <path d="M0.198630137,14.5058538 L10.6505479,14.5058538" id="Stroke-7"></path>
                <path d="M0.198630137,25.2143667 L10.6505479,25.2143667" id="Stroke-9"></path>
                <path d="M0.198630137,36.3512359 L10.6505479,36.3512359" id="Stroke-11"></path>
                <path d="M0.198630137,47.0598282 L10.6505479,47.0598282" id="Stroke-13"></path>
            </g>
        </g>
    </g>
</svg>