<svg xmlns="http://www.w3.org/2000/svg" width="250" height="183.64" viewBox="0 0 250 183.64"><linearGradient id="a" gradientUnits="userSpaceOnUse" x1="97.868" y1="153.721" x2="102.271" y2="146.383"><stop offset="0" stop-color="#48642E"/><stop offset=".988" stop-color="#053820"/></linearGradient><path fill="url(#a)" d="M129.05 126.46c.29-.29.57-.59.84-.88.15-.17.3-.34.45-.5.22-.25.44-.5.65-.75.15-.18.3-.36.45-.53.21-.25.4-.5.6-.75.13-.16.26-.33.39-.49.28-.38.56-.75.82-1.13.14-.2.27-.4.41-.61.13-.2.26-.39.39-.59.14-.22.27-.44.41-.66.1-.17.2-.34.29-.5.13-.24.27-.47.39-.7.07-.13.13-.26.2-.38.46-.88.85-1.73 1.18-2.57.03-.07.06-.15.08-.22.11-.28.2-.54.29-.81.02-.06.04-.13.06-.19 1.36-4.14 1.05-7.48-.59-8.98-.43-.39-.95-.79-1.53-1.21-.02-.01-.03-.02-.05-.03-.18-.13-.37-.26-.56-.39-.03-.02-.05-.04-.08-.06-.19-.12-.39-.25-.58-.38-.03-.02-.07-.04-.1-.06-.2-.13-.41-.25-.62-.38-.04-.02-.07-.04-.11-.07-.21-.13-.43-.25-.65-.38-.04-.02-.07-.04-.11-.07-.22-.13-.45-.26-.68-.38-.04-.02-.07-.04-.11-.06-.24-.13-.47-.26-.71-.39-.03-.02-.06-.03-.09-.05-.25-.14-.5-.27-.75-.41l-.06-.03-.81-.42c-3.13-1.61-6.53-3.14-9.22-4.3-.01 0-.02-.01-.02-.01-.23-.1-.46-.2-.68-.29-.02-.01-.04-.01-.06-.02-.21-.09-.42-.17-.61-.26-.03-.01-.05-.02-.08-.03-.18-.08-.36-.15-.53-.22-.04-.02-.09-.03-.13-.05-.17-.07-.33-.14-.49-.2-.03-.01-.05-.02-.08-.03-.17-.07-.32-.13-.48-.2-.01 0-.02-.01-.04-.01-.15-.06-.3-.12-.44-.18-.02-.01-.04-.02-.07-.03-.12-.05-.24-.1-.34-.14-.04-.02-.07-.03-.11-.05-.08-.03-.17-.07-.24-.1-.04-.02-.07-.03-.11-.04-.26-.11-.45-.18-.52-.21-.03-.01-.05-.02-.05-.02-10.5-1.9-16.42 6.03-23.9 12.73-7.48 6.7-13.74 15.52-14.52 20.89-.84 5.75-.22 12.4 7.93 16.42 8.15 4.02 19.21 14.85 19.21 14.85-5.36.56-20.1-1.67-23.23-2.79-3.13-1.12-6.93-1.34-9.05 1.56-.79 1.08-1.71 2.66-2.58 4.36-2.84.72-8.63 3.15-9.33 11.12 0 0-.13.79.93.4.87-.32 2.26-3.22 5.26-3.21-.2 2 1.02 2.55 1.61 2.69-.02.15 6.79-.17 6.79-.17.11 2.57 5.25 1.12 5.25 1.12 2.53-.33 5.57-.66 8.86-.97.17-.02.34-.03.51-.05.34-.03.69-.06 1.04-.1l.66-.06.95-.09.69-.06c.31-.03.62-.05.94-.08l.71-.06c.31-.03.63-.05.94-.08l.71-.06 1.54-.12c.29-.02.58-.05.86-.07l.78-.06c.3-.02.61-.05.91-.07.24-.02.49-.04.73-.05.31-.03.62-.05.93-.07.24-.02.47-.04.71-.05.31-.02.62-.04.93-.07.21-.02.42-.03.62-.05.34-.02.68-.05 1.02-.07.03 0 .07 0 .1-.01.83-.06 1.64-.11 2.45-.17l.41-.03c.34-.02.67-.04 1-.07.18-.01.36-.02.53-.04l.93-.06c.2-.01.41-.03.61-.04l.85-.06c.2-.01.39-.03.59-.04.3-.02.59-.04.88-.05l.4-.03c.66-.04 1.3-.08 1.92-.12.08 0 .17-.01.25-.02.23-.01.46-.03.69-.04.21-.01.42-.02.62-.04.22-.01.44-.03.65-.04l.55-.03.61-.03.6-.03.49-.03.66-.03c.12 0 .25-.01.37-.02.32-.02.63-.03.93-.04.07 0 .14-.01.21-.01l.64-.03c.1-.01.19-.01.29-.01.16-.01.31-.01.46-.02.1 0 .19-.01.28-.01.13 0 .26-.01.37-.01.08 0 .16 0 .23-.01.12 0 .23-.01.33-.01h.52c3.46 0 3.01-1.79 3.01-1.79-.33-2.34-4.24-5.92-10.16-8.38-5.92-2.46-10.5-11.62-13.29-15.08-2.79-3.46.22-4.24.22-4.24.86-.27 1.69-.55 2.51-.85.25-.09.5-.18.75-.28.57-.21 1.13-.42 1.68-.64.27-.11.53-.21.8-.32.55-.23 1.09-.46 1.63-.69.22-.1.44-.19.65-.28.73-.33 1.45-.67 2.15-1.01l.18-.09c.64-.32 1.26-.64 1.86-.97.21-.11.41-.22.61-.34.46-.25.92-.51 1.36-.78.21-.12.42-.25.63-.37.46-.28.91-.56 1.34-.84.16-.1.32-.2.48-.31.58-.39 1.16-.77 1.71-1.17.08-.06.17-.12.25-.19.46-.33.91-.67 1.35-1.01.17-.13.34-.26.51-.4.35-.28.69-.55 1.02-.83.17-.14.34-.29.51-.43.34-.29.68-.59 1-.89.13-.12.26-.23.39-.35.43-.41.85-.81 1.26-1.22.13-.11.24-.23.35-.35z"/><linearGradient id="b" gradientUnits="userSpaceOnUse" x1="45.95" y1="126.78" x2="55" y2="116.752"><stop offset=".388" stop-color="#48642E"/><stop offset=".988" stop-color="#053820"/></linearGradient><path fill="url(#b)" d="M71.54 111.52c.52-2.81 2.56-12.79-.79-16.43-.05-.05-.1-.11-.15-.16-.06-.06-.13-.12-.2-.18-.06-.05-.13-.1-.19-.16-.06-.05-.13-.1-.19-.14-.13-.08-.26-.17-.4-.24-.05-.02-.1-.04-.14-.06-.11-.05-.22-.1-.34-.14l-.18-.06c-.12-.04-.24-.07-.37-.09-.06-.01-.12-.03-.18-.04-.19-.03-.38-.06-.59-.07 0 0-7.89.89-2.28 18.89 0 0-7.74 3.15-14.82 1.5s-11.19 1.57-10.85 7.08c.02.38.07.75.14 1.11.02.11.05.22.07.33.05.25.11.49.18.73.03.12.07.23.11.34.08.23.16.45.25.67.04.1.09.2.13.29.11.24.23.46.36.69.03.06.07.12.11.19 1.75 2.88 4.84 4.37 7.33 3.4.43-.17.8-.39 1.12-.64 8.89 1.92 3.42-2.85 1.69-4.24-.02-1.36-.37-2.73-.87-3.74 0 0 10.73.96 17.48-3.02 3.26-1.92 2.94-2.4 3.57-5.81z"/><linearGradient id="c" gradientUnits="userSpaceOnUse" x1="31.084" y1="16.042" x2="39.074" y2="20.445"><stop offset="0" stop-color="#7FBF59"/><stop offset="1" stop-color="#549B44"/></linearGradient><path fill="url(#c)" d="M48.59 13.77l-15 16.96S32.43 20.4 35.43 9.41c0 0 .71-4.5 4.26-1.87 3.54 2.62 5.64 5.46 8.9 6.23z"/><linearGradient id="d" gradientUnits="userSpaceOnUse" x1="77.619" y1="106.592" x2="116.509" y2="68.191"><stop offset="0" stop-color="#7FBF59"/><stop offset="1" stop-color="#549B44"/></linearGradient><path fill="url(#d)" d="M37.91 22.7s3.67-11.74 13.94-18.34c0 0 1.22-.49 3.42 2.45 2.2 2.94 8.81 4.4 12.48 4.65 3.67.24 20.55 9.54 22.99 18.1 2.45 8.56 2.2 11.5.24 20.79-1.96 9.29-4.4 16.14 1.47 24.7 5.87 8.56 18.59 7.34 26.17 6.36 7.58-.98 19.08-7.83 50.14-3.18 31.06 4.65 45.25 3.91 54.05.98 8.81-2.93 18.59-10.27 21.04-8.32 2.45 1.96-13.21 17.85-32.29 22.26-19.08 4.4-31.8 14.67-41.09 19.57-9.29 4.89-34.49 39.62-81.45 25.68-46.96-13.94-24.21-66.77-24.21-66.77s-7.09-3.18-17.37 0c-10.27 3.18-29.6 4.16-35.96-3.91 0 0-4.65 2.2-5.38-4.16-.73-6.36-.49-23.48 12.96-27.64.02-.01 15.43-1.23 18.85-13.22z"/><path fill="#B4D68C" d="M198.41 97.37c-16.12-.22-37.71 5.31-37.71 5.31s-52.71 16.51-54.67 15.9-18.59 1.83-27.15-14.8c-8.56-16.63-2.81-38.52-2.81-38.52 3.18-10.76-7.34-12.72-7.34-12.72-2.81 5.75-14.06 4.65-22.99 4.65s-17.37 1.59-21.77 5.01c-4.4 3.42-12.47 5.5-12.47 5.5 6.36 8.07 25.68 7.09 35.96 3.91 10.27-3.18 17.37 0 17.37 0s-22.75 52.83 24.21 66.77c46.96 13.94 72.15-20.79 81.45-25.68 6.96-3.66 15.86-10.35 27.92-15.33z"/><linearGradient id="e" gradientUnits="userSpaceOnUse" x1="176.093" y1="109.53" x2="176.252" y2="109.373"><stop offset="0" stop-color="#7FBF59"/><stop offset="1" stop-color="#549B44"/></linearGradient><path fill="url(#e)" d="M176.56 109.17c-.2.12-.4.24-.59.36.2-.11.4-.23.59-.36z"/><linearGradient id="f" gradientUnits="userSpaceOnUse" x1="173.951" y1="110.814" x2="174.094" y2="110.672"><stop offset="0" stop-color="#7FBF59"/><stop offset="1" stop-color="#549B44"/></linearGradient><path fill="url(#f)" d="M174.38 110.5c-.18.11-.36.21-.54.32.18-.11.36-.21.54-.32z"/><linearGradient id="g" gradientUnits="userSpaceOnUse" x1="172.209" y1="111.824" x2="172.344" y2="111.691"><stop offset="0" stop-color="#7FBF59"/><stop offset="1" stop-color="#549B44"/></linearGradient><path fill="url(#g)" d="M172.62 111.53c-.17.1-.35.2-.52.29.17-.09.35-.19.52-.29z"/><linearGradient id="h" gradientUnits="userSpaceOnUse" x1="188.635" y1="102.694" x2="189.844" y2="101.501"><stop offset="0" stop-color="#7FBF59"/><stop offset="1" stop-color="#549B44"/></linearGradient><path fill="url(#h)" d="M192.36 100.12c-1.66.82-3.24 1.65-4.77 2.5 1.53-.85 3.11-1.68 4.77-2.5z"/><linearGradient id="i" gradientUnits="userSpaceOnUse" x1="185.607" y1="103.94" x2="186.044" y2="103.51"><stop offset="0" stop-color="#7FBF59"/><stop offset="1" stop-color="#549B44"/></linearGradient><path fill="url(#i)" d="M186.93 102.99c-.57.32-1.12.63-1.67.95.54-.32 1.1-.64 1.67-.95z"/><linearGradient id="j" gradientUnits="userSpaceOnUse" x1="193.51" y1="99.834" x2="193.976" y2="99.373"><stop offset="0" stop-color="#7FBF59"/><stop offset="1" stop-color="#549B44"/></linearGradient><path fill="url(#j)" d="M194.98 98.87c-.64.3-1.28.6-1.9.9.62-.3 1.26-.6 1.9-.9z"/><linearGradient id="k" gradientUnits="userSpaceOnUse" x1="178.402" y1="108.251" x2="178.891" y2="107.769"><stop offset="0" stop-color="#7FBF59"/><stop offset="1" stop-color="#549B44"/></linearGradient><path fill="url(#k)" d="M179.85 107.16c-.62.38-1.22.75-1.82 1.12.6-.37 1.21-.74 1.82-1.12z"/><linearGradient id="l" gradientUnits="userSpaceOnUse" x1="181.294" y1="106.774" x2="182.413" y2="105.669"><stop offset="0" stop-color="#7FBF59"/><stop offset="1" stop-color="#549B44"/></linearGradient><path fill="url(#l)" d="M184.64 104.29c-1.46.85-2.87 1.69-4.21 2.51 1.34-.81 2.75-1.66 4.21-2.51z"/><defs><filter id="m" filterUnits="userSpaceOnUse" x="11.5" y="64.59" width="128.74" height="77.07"><feFlood result="back" flood-color="#fff" flood-opacity="1"/><feBlend in="SourceGraphic" in2="back"/></filter></defs><mask maskUnits="userSpaceOnUse" x="11.5" y="64.59" width="128.74" height="77.07" id="SVGID_13_"><g filter="url(#m)"><defs><filter id="n" filterUnits="userSpaceOnUse" x="11.5" y="64.59" width="128.74" height="77.07"><feFlood result="back" flood-color="#fff" flood-opacity="1"/><feBlend in="SourceGraphic" in2="back"/></filter></defs><linearGradient id="p" gradientUnits="userSpaceOnUse" x1="56.726" y1="119.012" x2="78.984" y2="98.221"><stop offset="0" stop-color="#FFF"/><stop offset=".146" stop-color="#FCFCFC"/><stop offset=".275" stop-color="#F1F1F1"/><stop offset=".396" stop-color="#DFDFDF"/><stop offset=".514" stop-color="#C5C5C5"/><stop offset=".628" stop-color="#A5A5A5"/><stop offset=".741" stop-color="#7D7D7D"/><stop offset=".852" stop-color="#4D4D4D"/><stop offset=".958" stop-color="#171717"/><stop offset="1"/></linearGradient><path mask="url(#o)" fill="url(#p)" d="M140.24 134.55c-5.77-1.31-13.94-2.53-25.28-3.01-29.11-1.22-40.85-11.5-46.23-23.48-5.38-11.98 0-29.6 1.22-35.46 1.22-5.87-6.85-5.87-6.85-5.87-10.27-2.45-15.9 1.47-27.64 3.18-8.53 1.24-13.44-2.93-15.49-5.31-4.08 1.97-8.48 3.11-8.48 3.11 6.36 8.07 25.68 7.09 35.96 3.91 10.27-3.18 17.37 0 17.37 0s-22.75 52.83 24.21 66.77c21.41 6.36 38.29 2.6 51.21-3.84z"/></g></mask><linearGradient id="q" gradientUnits="userSpaceOnUse" x1="56.726" y1="119.012" x2="78.984" y2="98.221"><stop offset="0" stop-color="#F7F8F8"/><stop offset=".939" stop-color="#F7F8F8"/><stop offset="1" stop-color="#F7F8F8"/></linearGradient><path opacity=".4" fill="url(#q)" d="M140.24 134.55c-5.77-1.31-13.94-2.53-25.28-3.01-29.11-1.22-40.85-11.5-46.23-23.48-5.38-11.98 0-29.6 1.22-35.46 1.22-5.87-6.85-5.87-6.85-5.87-10.27-2.45-15.9 1.47-27.64 3.18-8.53 1.24-13.44-2.93-15.49-5.31-4.08 1.97-8.48 3.11-8.48 3.11 6.36 8.07 25.68 7.09 35.96 3.91 10.27-3.18 17.37 0 17.37 0s-22.75 52.83 24.21 66.77c21.41 6.36 38.29 2.6 51.21-3.84z"/><path fill="#815021" d="M67.51 136.68l1.83-5.14s12.11 6-1.83 5.14z"/><path fill="#25AA4A" d="M172.62 111.53c-.17.1-.35.2-.52.29.17-.09.35-.19.52-.29zM174.38 110.5c-.18.11-.36.21-.54.32.18-.11.36-.21.54-.32zM176.56 109.17c-.2.12-.4.24-.59.36.2-.11.4-.23.59-.36zM192.36 100.12c-1.66.82-3.24 1.65-4.77 2.5 1.53-.85 3.11-1.68 4.77-2.5zM186.93 102.99c-.57.32-1.12.63-1.67.95.54-.32 1.1-.64 1.67-.95zM179.85 107.16c-.62.38-1.22.75-1.82 1.12.6-.37 1.21-.74 1.82-1.12zM194.98 98.87c-.64.3-1.28.6-1.9.9.62-.3 1.26-.6 1.9-.9zM184.64 104.29c-1.46.85-2.87 1.69-4.21 2.51 1.34-.81 2.75-1.66 4.21-2.51z"/><path fill="#FFF" d="M23.1 62.83c1.23 1.97 3.61 5.41 4.84 4.75 1.2-.64.66-5.07.23-7.69-1.63.65-3.06 1.41-4.2 2.3-.27.23-.57.44-.87.64zM45.74 57.19c-1.5 0-2.98.05-4.44.14.34 2.48 1.18 6.98 2.76 7.01 1.6.03 2.69-4.67 3.15-7.14-.49-.01-.98-.01-1.47-.01z"/><defs><filter id="r" filterUnits="userSpaceOnUse" x="5.89" y="4.32" width="86.21" height="63.75"><feFlood result="back" flood-color="#fff" flood-opacity="1"/><feBlend in="SourceGraphic" in2="back"/></filter></defs><mask maskUnits="userSpaceOnUse" x="5.89" y="4.32" width="86.21" height="63.75" id="SVGID_16_"><g filter="url(#r)"><defs><filter id="s" filterUnits="userSpaceOnUse" x="5.89" y="4.32" width="86.21" height="63.75"><feFlood result="back" flood-color="#fff" flood-opacity="1"/><feBlend in="SourceGraphic" in2="back"/></filter></defs><linearGradient id="u" gradientUnits="userSpaceOnUse" x1="34.997" y1="22.928" x2="46.574" y2="43.636"><stop offset="0" stop-color="#FFF"/><stop offset=".208" stop-color="#FCFCFC"/><stop offset=".343" stop-color="#F4F4F4"/><stop offset=".458" stop-color="#E5E5E5"/><stop offset=".56" stop-color="#D0D0D0"/><stop offset=".655" stop-color="#B4B4B4"/><stop offset=".744" stop-color="#939393"/><stop offset=".829" stop-color="#6B6B6B"/><stop offset=".91" stop-color="#3D3D3D"/><stop offset=".986" stop-color="#0A0A0A"/><stop offset="1"/></linearGradient><path mask="url(#t)" fill="url(#u)" d="M92.1 35.15c-.29-1.64-.74-3.44-1.35-5.6-2.44-8.56-19.32-17.85-22.99-18.1-3.67-.25-10.28-1.71-12.48-4.65-2.2-2.94-3.42-2.45-3.42-2.45C41.58 10.96 37.91 22.7 37.91 22.7c-3.42 11.99-18.83 13.21-18.83 13.21C5.63 40.07 5.38 57.19 6.12 63.55c.73 6.36 5.38 4.16 5.38 4.16.06.08.13.14.19.22 1.99-.49 4.88-1.88 5.19-5.84.49-6.11 7.58-15.16 18.59-17.37 11.01-2.2 20.06-10.52 22.75-18.1 2.6-7.34 20.53-8.04 33.88 8.53z"/></g></mask><linearGradient id="v" gradientUnits="userSpaceOnUse" x1="34.997" y1="22.928" x2="46.574" y2="43.636"><stop offset="0" stop-color="#A7D296"/><stop offset=".87" stop-color="#A7D296"/><stop offset="1" stop-color="#A7D296"/></linearGradient><path opacity=".6" fill="url(#v)" d="M92.1 35.15c-.29-1.64-.74-3.44-1.35-5.6-2.44-8.56-19.32-17.85-22.99-18.1-3.67-.25-10.28-1.71-12.48-4.65-2.2-2.94-3.42-2.45-3.42-2.45C41.58 10.96 37.91 22.7 37.91 22.7c-3.42 11.99-18.83 13.21-18.83 13.21C5.63 40.07 5.38 57.19 6.12 63.55c.73 6.36 5.38 4.16 5.38 4.16.06.08.13.14.19.22 1.99-.49 4.88-1.88 5.19-5.84.49-6.11 7.58-15.16 18.59-17.37 11.01-2.2 20.06-10.52 22.75-18.1 2.6-7.34 20.53-8.04 33.88 8.53z"/><ellipse fill="#FFF" cx="56.87" cy="25.79" rx="4.89" ry="8.62"/><ellipse fill="#231815" cx="55.12" cy="25.79" rx="3.14" ry="5.53"/><path fill="#549B44" d="M52.24 23.01l8.57-2.31c-.89-2.14-2.32-3.53-3.94-3.53-2.15-.01-3.97 2.44-4.63 5.84z"/><path fill="#49853D" d="M22.25 45.52c-1.54 1.66-4.69 4.07-5.29 3.51-.6-.56 1.58-3.88 3.12-5.53 1.54-1.66 3.28-2.55 3.88-1.99.6.56-.17 2.35-1.71 4.01z"/><linearGradient id="w" gradientUnits="userSpaceOnUse" x1="162.25" y1="99.583" x2="162.25" y2="99.583"><stop offset="0" stop-color="#7FBF59"/><stop offset="1" stop-color="#549B44"/></linearGradient><linearGradient id="x" gradientUnits="userSpaceOnUse" x1="162.737" y1="101.54" x2="162.737" y2="101.54"><stop offset="0" stop-color="#7FBF59"/><stop offset="1" stop-color="#549B44"/></linearGradient><defs><filter id="y" filterUnits="userSpaceOnUse" x="82.24" y="35.98" width="159.09" height="55.63"><feFlood result="back" flood-color="#fff" flood-opacity="1"/><feBlend in="SourceGraphic" in2="back"/></filter></defs><mask maskUnits="userSpaceOnUse" x="82.24" y="35.98" width="159.09" height="55.63" id="SVGID_21_"><g filter="url(#y)"><defs><filter id="z" filterUnits="userSpaceOnUse" x="82.24" y="35.98" width="159.09" height="55.63"><feFlood result="back" flood-color="#fff" flood-opacity="1"/><feBlend in="SourceGraphic" in2="back"/></filter></defs><linearGradient id="B" gradientUnits="userSpaceOnUse" x1="82.243" y1="63.793" x2="241.336" y2="63.793"><stop offset="0" stop-color="#FFF"/><stop offset=".063" stop-color="#DADADA"/><stop offset=".16" stop-color="#A7A7A7"/><stop offset=".262" stop-color="#7B7B7B"/><stop offset=".367" stop-color="#555"/><stop offset=".475" stop-color="#363636"/><stop offset=".588" stop-color="#1E1E1E"/><stop offset=".707" stop-color="#0D0D0D"/><stop offset=".838" stop-color="#030303"/><stop offset="1"/></linearGradient><path mask="url(#A)" fill="url(#B)" d="M241.34 70.79c-4.09 1.1-11.6 6.1-18.51 8.41-8.81 2.94-22.99 3.67-54.05-.98s-42.56 2.2-50.14 3.18c-7.58.98-20.3 2.2-26.17-6.36-5.87-8.56-3.42-15.41-1.47-24.7 1.38-6.54 1.9-9.94 1.24-14.36-.5 3.93-1.98 11.73-5.97 13.06 0 0-14.68 33.75 12.07 41.91 0 0 10.76 3.75 34.08-6.52 0 0 15-5.38 36.52-1.47 20.94 3.8 54.39 5.9 72.4-12.17z"/></g></mask><linearGradient id="C" gradientUnits="userSpaceOnUse" x1="82.243" y1="63.793" x2="241.336" y2="63.793"><stop offset="0" stop-color="#A7D296"/><stop offset=".09" stop-color="#A7D296"/><stop offset="1" stop-color="#A7D296"/></linearGradient><path fill="url(#C)" d="M241.34 70.79c-4.09 1.1-11.6 6.1-18.51 8.41-8.81 2.94-22.99 3.67-54.05-.98s-42.56 2.2-50.14 3.18c-7.58.98-20.3 2.2-26.17-6.36-5.87-8.56-3.42-15.41-1.47-24.7 1.38-6.54 1.9-9.94 1.24-14.36-.5 3.93-1.98 11.73-5.97 13.06 0 0-14.68 33.75 12.07 41.91 0 0 10.76 3.75 34.08-6.52 0 0 15-5.38 36.52-1.47 20.94 3.8 54.39 5.9 72.4-12.17z"/><g opacity=".6"><defs><filter id="D" filterUnits="userSpaceOnUse" x="195.74" y="97.58" width="2.18" height=".94"><feFlood result="back" flood-color="#fff" flood-opacity="1"/><feBlend in="SourceGraphic" in2="back"/></filter></defs><mask maskUnits="userSpaceOnUse" x="195.74" y="97.58" width="2.18" height=".94" id="SVGID_24_"><g filter="url(#D)"><defs><filter id="E" filterUnits="userSpaceOnUse" x="195.74" y="97.58" width="2.18" height=".94"><feFlood result="back" flood-color="#fff" flood-opacity="1"/><feBlend in="SourceGraphic" in2="back"/></filter></defs><linearGradient id="G" gradientUnits="userSpaceOnUse" x1="154.632" y1="10.444" x2="189.552" y2="82.952"><stop offset="0" stop-color="#FFF"/><stop offset=".208" stop-color="#FCFCFC"/><stop offset=".343" stop-color="#F4F4F4"/><stop offset=".458" stop-color="#E5E5E5"/><stop offset=".56" stop-color="#D0D0D0"/><stop offset=".655" stop-color="#B4B4B4"/><stop offset=".744" stop-color="#939393"/><stop offset=".829" stop-color="#6B6B6B"/><stop offset=".91" stop-color="#3D3D3D"/><stop offset=".986" stop-color="#0A0A0A"/><stop offset="1"/></linearGradient><path mask="url(#F)" fill="url(#G)" d="M197.91 97.58c-.74.31-1.46.62-2.18.94.72-.31 1.45-.63 2.18-.94z"/></g></mask><linearGradient id="H" gradientUnits="userSpaceOnUse" x1="154.632" y1="10.444" x2="189.552" y2="82.952"><stop offset="0" stop-color="#49853D"/><stop offset=".87" stop-color="#49853D"/><stop offset="1" stop-color="#49853D"/></linearGradient><path fill="url(#H)" d="M197.91 97.58c-.74.31-1.46.62-2.18.94.72-.31 1.45-.63 2.18-.94z"/><defs><filter id="I" filterUnits="userSpaceOnUse" x="67.35" y="43.65" width="133.18" height="74.94"><feFlood result="back" flood-color="#fff" flood-opacity="1"/><feBlend in="SourceGraphic" in2="back"/></filter></defs><mask maskUnits="userSpaceOnUse" x="67.35" y="43.65" width="133.18" height="74.94" id="SVGID_27_"><g filter="url(#I)"><defs><filter id="J" filterUnits="userSpaceOnUse" x="67.35" y="43.65" width="133.18" height="74.94"><feFlood result="back" flood-color="#fff" flood-opacity="1"/><feBlend in="SourceGraphic" in2="back"/></filter></defs><linearGradient id="L" gradientUnits="userSpaceOnUse" x1="107.073" y1="32.419" x2="142.294" y2="105.551"><stop offset="0" stop-color="#FFF"/><stop offset=".141" stop-color="#FBFBFB"/><stop offset=".269" stop-color="#F0F0F0"/><stop offset=".391" stop-color="#DEDEDE"/><stop offset=".51" stop-color="#C4C4C4"/><stop offset=".628" stop-color="#A2A2A2"/><stop offset=".743" stop-color="#797979"/><stop offset=".857" stop-color="#494949"/><stop offset=".967" stop-color="#121212"/><stop offset="1"/></linearGradient><path mask="url(#K)" fill="url(#L)" d="M166.65 96.16c-15.82 2.45-35.22 8.48-44.52 10.93-9.29 2.45-18.59 6.36-32.12-1.47-13.53-7.83-13.21-30-11.25-41.58 1.76-10.44-5.36-12.79-6.77-13.15-.28-4.39-4.64-7.23-4.64-7.23 3.42 4.32 1.39 8.89 1.39 8.89s10.52 1.96 7.34 12.72c0 0-5.75 21.89 2.81 38.52 8.56 16.63 25.19 14.19 27.15 14.8s54.67-15.9 54.67-15.9 21.59-5.53 37.71-5.31c-.17.07-.33.14-.49.21.86-.36 1.73-.71 2.61-1.05-4.48-1.15-19.94-2.54-33.89-.38z"/></g></mask><linearGradient id="M" gradientUnits="userSpaceOnUse" x1="107.073" y1="32.419" x2="142.294" y2="105.551"><stop offset="0" stop-color="#49853D"/><stop offset=".951" stop-color="#49853D"/><stop offset="1" stop-color="#49853D"/></linearGradient><path fill="url(#M)" d="M166.65 96.16c-15.82 2.45-35.22 8.48-44.52 10.93-9.29 2.45-18.59 6.36-32.12-1.47-13.53-7.83-13.21-30-11.25-41.58 1.76-10.44-5.36-12.79-6.77-13.15-.28-4.39-4.64-7.23-4.64-7.23 3.42 4.32 1.39 8.89 1.39 8.89s10.52 1.96 7.34 12.72c0 0-5.75 21.89 2.81 38.52 8.56 16.63 25.19 14.19 27.15 14.8s54.67-15.9 54.67-15.9 21.59-5.53 37.71-5.31c-.17.07-.33.14-.49.21.86-.36 1.73-.71 2.61-1.05-4.48-1.15-19.94-2.54-33.89-.38z"/></g><linearGradient id="N" gradientUnits="userSpaceOnUse" x1="73.322" y1="135.892" x2="70.632" y2="134.913"><stop offset="0" stop-color="#815021"/><stop offset=".219" stop-color="#754920"/><stop offset=".645" stop-color="#58351B"/><stop offset="1" stop-color="#3F2213"/></linearGradient><path fill="url(#N)" d="M67.51 136.68l1.83-5.14s12.11 6-1.83 5.14z"/><linearGradient id="O" gradientUnits="userSpaceOnUse" x1="71.381" y1="113.28" x2="77.74" y2="131.625"><stop offset="0" stop-color="#7FBF59"/><stop offset="1" stop-color="#549B44"/></linearGradient><path fill="url(#O)" d="M81.61 95.91s-8.32 2.53 1.3 20.79c0 0-7.7 4.93-15.65 4.56-7.95-.37-11.74 3.91-10.27 9.79 1.47 5.87 7.34 8.81 10.88 6.6 3.55-2.2 2.2-7.21.37-9.66 0 0 11.74-1.1 18.22-6.73 3.13-2.72 2.69-3.18 2.69-6.97.01-3.78.33-19.4-7.54-18.38z"/><defs><filter id="P" filterUnits="userSpaceOnUse" x="56.68" y="95.87" width="29.83" height="42.04"><feFlood result="back" flood-color="#fff" flood-opacity="1"/><feBlend in="SourceGraphic" in2="back"/></filter></defs><mask maskUnits="userSpaceOnUse" x="56.68" y="95.87" width="29.83" height="42.04" id="SVGID_32_"><g filter="url(#P)"><defs><filter id="Q" filterUnits="userSpaceOnUse" x="56.68" y="95.87" width="29.83" height="42.04"><feFlood result="back" flood-color="#fff" flood-opacity="1"/><feBlend in="SourceGraphic" in2="back"/></filter></defs><linearGradient id="S" gradientUnits="userSpaceOnUse" x1="70.526" y1="114.1" x2="77.212" y2="122.089"><stop offset="0" stop-color="#FFF"/><stop offset=".146" stop-color="#FCFCFC"/><stop offset=".275" stop-color="#F1F1F1"/><stop offset=".396" stop-color="#DFDFDF"/><stop offset=".514" stop-color="#C5C5C5"/><stop offset=".628" stop-color="#A5A5A5"/><stop offset=".741" stop-color="#7D7D7D"/><stop offset=".852" stop-color="#4D4D4D"/><stop offset=".958" stop-color="#171717"/><stop offset="1"/></linearGradient><path mask="url(#R)" fill="url(#S)" d="M85.94 114.91c-5.79-14.47-2.24-17.37-.65-17.95-.96-.82-2.17-1.24-3.67-1.05 0 0-8.32 2.53 1.3 20.79 0 0-7.7 4.93-15.65 4.56-7.95-.37-11.74 3.91-10.27 9.79.86 3.45 3.25 5.87 5.78 6.85 6.93-.92 2.13-12.07 2.13-12.07 6.85-1.14 15.33-4.4 19.24-6.03 3.91-1.63 1.79-4.89 1.79-4.89z"/></g></mask><linearGradient id="T" gradientUnits="userSpaceOnUse" x1="70.526" y1="114.1" x2="77.212" y2="122.089"><stop offset="0" stop-color="#A7D296"/><stop offset=".939" stop-color="#A7D296"/><stop offset="1" stop-color="#A7D296"/></linearGradient><path opacity=".6" fill="url(#T)" d="M85.94 114.91c-5.79-14.47-2.24-17.37-.65-17.95-.96-.82-2.17-1.24-3.67-1.05 0 0-8.32 2.53 1.3 20.79 0 0-7.7 4.93-15.65 4.56-7.95-.37-11.74 3.91-10.27 9.79.86 3.45 3.25 5.87 5.78 6.85 6.93-.92 2.13-12.07 2.13-12.07 6.85-1.14 15.33-4.4 19.24-6.03 3.91-1.63 1.79-4.89 1.79-4.89z"/><linearGradient id="U" gradientUnits="userSpaceOnUse" x1="78.431" y1="172.004" x2="90.36" y2="172.004"><stop offset="0" stop-color="#815021"/><stop offset=".219" stop-color="#754920"/><stop offset=".645" stop-color="#58351B"/><stop offset="1" stop-color="#3F2213"/></linearGradient><path fill="url(#U)" d="M87.74 175.46s1.31-7.03 2.62-9.98c0 0-10.91.87-11.92 12.49 0 0-.15.87 1.02.43 1.16-.43 3.19-5.11 8.28-2.94z"/><linearGradient id="V" gradientUnits="userSpaceOnUse" x1="112.821" y1="130.641" x2="136.302" y2="148.496"><stop offset="0" stop-color="#7FBF59"/><stop offset="1" stop-color="#549B44"/></linearGradient><path fill="url(#V)" d="M140.28 91.31s18.47 7.22 23.97 12.23c5.5 5.01-2.57 28.86-35.34 39.26 0 0-3.3.86-.24 4.65 3.06 3.79 8.07 13.82 14.55 16.51 6.48 2.69 10.76 6.6 11.13 9.17 0 0 .49 1.96-3.3 1.96s-34.85 1.83-49.78 3.79c0 0-5.62 1.59-5.75-1.22l-7.09.24s-2.57-.12-2.08-3.3c.49-3.18 3.91-10.4 6.24-13.58 2.32-3.18 6.48-2.94 9.91-1.71 3.42 1.22 19.57 3.67 25.44 3.06 0 0-12.11-11.86-21.03-16.26-8.93-4.4-9.6-11.68-8.68-17.98.86-5.87 7.7-15.53 15.9-22.87 8.17-7.35 14.65-16.03 26.15-13.95z"/><defs><filter id="W" filterUnits="userSpaceOnUse" x="86.28" y="91" width="77.21" height="86.9"><feFlood result="back" flood-color="#fff" flood-opacity="1"/><feBlend in="SourceGraphic" in2="back"/></filter></defs><mask maskUnits="userSpaceOnUse" x="86.28" y="91" width="77.21" height="86.9" id="SVGID_37_"><g filter="url(#W)"><defs><filter id="X" filterUnits="userSpaceOnUse" x="86.28" y="91" width="77.21" height="86.9"><feFlood result="back" flood-color="#fff" flood-opacity="1"/><feBlend in="SourceGraphic" in2="back"/></filter></defs><linearGradient id="Z" gradientUnits="userSpaceOnUse" x1="91.124" y1="115.65" x2="130.749" y2="144.024"><stop offset="0" stop-color="#FFF"/><stop offset=".146" stop-color="#FCFCFC"/><stop offset=".275" stop-color="#F1F1F1"/><stop offset=".396" stop-color="#DFDFDF"/><stop offset=".514" stop-color="#C5C5C5"/><stop offset=".628" stop-color="#A5A5A5"/><stop offset=".741" stop-color="#7D7D7D"/><stop offset=".852" stop-color="#4D4D4D"/><stop offset=".958" stop-color="#171717"/><stop offset="1"/></linearGradient><path mask="url(#Y)" fill="url(#Z)" d="M163.17 102.65c-6.49-4.94-22.89-11.34-22.89-11.34-11.5-2.08-17.98 6.6-26.17 13.94-8.19 7.34-15.04 17-15.9 22.87-.92 6.3-.25 13.58 8.68 17.98s21.03 16.26 21.03 16.26c-5.87.61-22.01-1.83-25.44-3.06-3.42-1.22-7.58-1.47-9.91 1.71-2.32 3.18-5.75 10.39-6.24 13.58-.49 3.18 2.08 3.3 2.08 3.3l7.06-.24 2.55-8.13c3.12-8.66 24.76-3.08 31.94-3.4 7.17-.33 1.96-4.57 1.96-4.57s-4.57-6.85-11.58-14.35-8.15-9.62-8.15-9.62c-4.89-9.95 16.47-30.33 24.13-33.59 7.66-3.26 15.65 3.43 22.66 3.75 5.17.23 4.76-3.24 4.19-5.09z"/></g></mask><linearGradient id="aa" gradientUnits="userSpaceOnUse" x1="91.124" y1="115.65" x2="130.749" y2="144.024"><stop offset="0" stop-color="#A7D296"/><stop offset=".939" stop-color="#A7D296"/><stop offset="1" stop-color="#A7D296"/></linearGradient><path opacity=".6" fill="url(#aa)" d="M163.17 102.65c-6.49-4.94-22.89-11.34-22.89-11.34-11.5-2.08-17.98 6.6-26.17 13.94-8.19 7.34-15.04 17-15.9 22.87-.92 6.3-.25 13.58 8.68 17.98s21.03 16.26 21.03 16.26c-5.87.61-22.01-1.83-25.44-3.06-3.42-1.22-7.58-1.47-9.91 1.71-2.32 3.18-5.75 10.39-6.24 13.58-.49 3.18 2.08 3.3 2.08 3.3l7.06-.24 2.55-8.13c3.12-8.66 24.76-3.08 31.94-3.4 7.17-.33 1.96-4.57 1.96-4.57s-4.57-6.85-11.58-14.35-8.15-9.62-8.15-9.62c-4.89-9.95 16.47-30.33 24.13-33.59 7.66-3.26 15.65 3.43 22.66 3.75 5.17.23 4.76-3.24 4.19-5.09z"/><linearGradient id="ab" gradientUnits="userSpaceOnUse" x1="87.989" y1="174.113" x2="98.023" y2="174.113"><stop offset="0" stop-color="#815021"/><stop offset=".219" stop-color="#754920"/><stop offset=".645" stop-color="#58351B"/><stop offset="1" stop-color="#3F2213"/></linearGradient><path fill="url(#ab)" d="M95.82 176.55s1.1-4.95 2.2-7.03c0 0-9.17.61-10.03 8.81 0 0-.12.61.86.3s2.69-3.61 6.97-2.08z"/><linearGradient id="ac" gradientUnits="userSpaceOnUse" x1="100.858" y1="175.215" x2="109.512" y2="175.215"><stop offset="0" stop-color="#815021"/><stop offset=".219" stop-color="#754920"/><stop offset=".645" stop-color="#58351B"/><stop offset="1" stop-color="#3F2213"/></linearGradient><path fill="url(#ac)" d="M107.61 177.32s.95-4.28 1.9-6.07c0 0-7.91.53-8.65 7.6 0 0-.1.53.74.26s2.32-3.12 6.01-1.79z"/><defs><filter id="ad" filterUnits="userSpaceOnUse" x="109.31" y="108.74" width="56.5" height="69.23"><feFlood result="back" flood-color="#fff" flood-opacity="1"/><feBlend in="SourceGraphic" in2="back"/></filter></defs><mask maskUnits="userSpaceOnUse" x="109.31" y="108.74" width="56.5" height="69.23" id="SVGID_42_"><g filter="url(#ad)"><defs><filter id="ae" filterUnits="userSpaceOnUse" x="109.31" y="108.74" width="56.5" height="69.23"><feFlood result="back" flood-color="#fff" flood-opacity="1"/><feBlend in="SourceGraphic" in2="back"/></filter></defs><linearGradient id="ag" gradientUnits="userSpaceOnUse" x1="109.314" y1="143.352" x2="165.81" y2="143.352"><stop offset="0" stop-color="#FFF"/><stop offset=".208" stop-color="#FCFCFC"/><stop offset=".343" stop-color="#F4F4F4"/><stop offset=".458" stop-color="#E5E5E5"/><stop offset=".56" stop-color="#D0D0D0"/><stop offset=".655" stop-color="#B4B4B4"/><stop offset=".744" stop-color="#939393"/><stop offset=".829" stop-color="#6B6B6B"/><stop offset=".91" stop-color="#3D3D3D"/><stop offset=".986" stop-color="#0A0A0A"/><stop offset="1"/></linearGradient><path mask="url(#af)" fill="url(#ag)" d="M143.21 163.95c-6.48-2.69-11.5-12.72-14.55-16.51-3.06-3.79.24-4.65.24-4.65 26.04-8.26 36.48-25.01 36.91-34.06-.83 1-2.65 2.19-6.66 2.1 0 0-4.24 17.45-32.29 25.93 0 0-7.01 1.47-1.63 8.97l11.09 15.17s2.45 3.1 4.89 4.24c2.45 1.14 5.22 3.26.33 3.26s-14.68 1.96-21.69.65c-6.38-1.19-10.05 3.31-10.54 8.92 15.95-1.58 38.53-2.89 41.72-2.89 3.79 0 3.3-1.96 3.3-1.96-.36-2.56-4.64-6.48-11.12-9.17z"/></g></mask><linearGradient id="ah" gradientUnits="userSpaceOnUse" x1="109.314" y1="143.352" x2="165.81" y2="143.352"><stop offset="0" stop-color="#49853D"/><stop offset=".87" stop-color="#49853D"/><stop offset="1" stop-color="#49853D"/></linearGradient><path opacity=".8" fill="url(#ah)" d="M143.21 163.95c-6.48-2.69-11.5-12.72-14.55-16.51-3.06-3.79.24-4.65.24-4.65 26.04-8.26 36.48-25.01 36.91-34.06-.83 1-2.65 2.19-6.66 2.1 0 0-4.24 17.45-32.29 25.93 0 0-7.01 1.47-1.63 8.97l11.09 15.17s2.45 3.1 4.89 4.24c2.45 1.14 5.22 3.26.33 3.26s-14.68 1.96-21.69.65c-6.38-1.19-10.05 3.31-10.54 8.92 15.95-1.58 38.53-2.89 41.72-2.89 3.79 0 3.3-1.96 3.3-1.96-.36-2.56-4.64-6.48-11.12-9.17z"/></svg>