<?xml version="1.0" encoding="UTF-8" standalone="no"?>
<svg width="70px" height="46px" viewBox="0 0 70 46" version="1.1" xmlns="http://www.w3.org/2000/svg" xmlns:xlink="http://www.w3.org/1999/xlink">
    <!-- Generator: Sketch 39.1 (31720) - http://www.bohemiancoding.com/sketch -->
    <title>Page 1</title>
    <desc>Created with Sketch.</desc>
    <defs></defs>
    <g id="Page-1" stroke="none" stroke-width="1" fill="none" fill-rule="evenodd" stroke-linecap="round" stroke-linejoin="round">
        <g id="Partners-Desktop" transform="translate(-461.000000, -571.000000)" stroke="#E86F69" stroke-width="2.5">
            <g id="Page-1" transform="translate(462.000000, 572.000000)">
                <path d="M65.4032,43.4002 L2.4302,43.4002 C1.2262,43.4002 0.2502,42.4242 0.2502,41.2202 L0.2502,2.4302 C0.2502,1.2262 1.2262,0.2502 2.4302,0.2502 L65.4032,0.2502 C66.6072,0.2502 67.5832,1.2262 67.5832,2.4302 L67.5832,41.2202 C67.5832,42.4242 66.6072,43.4002 65.4032,43.4002 L65.4032,43.4002 Z" id="Stroke-1"></path>
                <path d="M67.0247,1.9036 L37.0747,27.0446 C35.2487,28.5776 32.5847,28.5776 30.7587,27.0446 L0.6337,1.7566" id="Stroke-3"></path>
                <path d="M25.6924,22.8355 L1.0624,42.1925" id="Stroke-5"></path>
                <path d="M66.5671,42.0321 L42.2711,22.9381" id="Stroke-7"></path>
            </g>
        </g>
    </g>
</svg>