<?xml version="1.0" encoding="utf-8"?>
<!-- Generator: Adobe Illustrator 21.0.0, SVG Export Plug-In . SVG Version: 6.00 Build 0)  -->
<svg version="1.1" id="Layer_1" xmlns="http://www.w3.org/2000/svg" xmlns:xlink="http://www.w3.org/1999/xlink" x="0px" y="0px"
	 width="227.6px" height="52.8px" viewBox="0 0 227.6 52.8" style="enable-background:new 0 0 227.6 52.8;" xml:space="preserve">
<style type="text/css">
	.st0{fill:#FFC627;}
</style>
<g>
	<path d="M40.7,42.4l-36,0.1C7.5,38.6,11,36.9,14,36c2.9-0.9,7.4-1.3,11.1-1.6c6.1-0.4,10.7-1.7,13.1-2.5c7.1-2.3,11.1-4.8,16.1-7.2
		c3.5-1.7,19.1-7.8,22.6-9.3c3.3-1.5,6.2-2.9,9.3-4.7c3.8-2.1,6.1-3.1,8.1-3.9c3.1-1.3,6.1-1.6,8.4-0.6c7,3.1,4.1,1.7,6.6,2.8
		c5.9,2.5,13.1,7.5,17.7,10.6c4.8,3.3,9.5,4.1,12.7,4.2c2.2,0.1,5.3-0.7,5.5-1c0.2-0.2-2.6,0.4-4,0.2c-7.3-1.5-10.1-4.1-11.1-4.8
		c0,0,0,0-0.1-0.1c-0.7-0.9-0.4-1.1-0.2-1.4c2.4-1.5,7.6-5.1,13.7-6.1c7.4-1.2,12.9,2.3,19,6.2c5.5,3.5,11.9,8,21.8,12.4
		c2.5,1.1,5,2.7,7.8,3.7c3,1.1,11.7,3.6,14.4,6.2c4.2,4,5.3,2.4,9.2,3.6c2.8,0.9,3.3,3,4.4,7.8c1.1-3.1-0.6-11.1-4.4-11.9
		c-3.3-0.7-3.8-0.3-6-1.7c-1.5-0.9-2.8-2.1-4.2-3.1c-3.5-2.4-6.4-2.8-10.1-4.1c-3.2-1.1-7-3.2-10-4.5c-7-3.1-13.3-6.9-20.7-11.5
		c-6.4-4-13.1-8.4-21.1-7.2c-3.5,0.5-6.4,1.6-9,3c-3.5,1.8-4,2.4-6.8,3.6c-1.8,0.8-3.6,0.5-3.6,0.5c-0.1,0-0.1,0-0.2,0
		c-5.1-3.6-10.8-7.4-13.9-8.4c-1.8-0.6-4.2-2.1-6.3-2.8c-3.8-1.3-8.9-0.7-12.4,1c-3.7,1.8-7.2,3.6-10.9,5.8c-4.2,2.5-21,9.2-25,10.9
		c-4,1.7-9.7,4.8-14.1,6.5c-10.3,4.2-11.2,3.8-21,4.8c-1.5,0.2-7,0.6-12.3,3.7c-3,1.8-7.6,5.8-7.6,9.4c0,0,0,0,0,0l0,0l40.3-0.1
		L40.7,42.4"/>
	<path class="st0" d="M40.7,41.6l-36.1,0c2.9-3.9,6.3-5.6,9.3-6.5c2.9-0.9,7.4-1.3,11.1-1.6c6.1-0.4,10.7-1.7,13.1-2.5
		c7.1-2.3,11.1-4.8,16.1-7.2c3.5-1.7,19.1-7.8,22.6-9.4c3.3-1.5,6.2-2.9,9.3-4.7c3.8-2.1,6.1-3.1,8.1-3.9c3.1-1.3,6.1-1.6,8.5-0.6
		c7,3.1,4.1,1.7,6.6,2.8c5.9,2.5,13.1,7.5,17.7,10.6c4.8,3.3,9.4,4.4,12.7,4.5c1.7,0.1,4.9-0.3,5.5-0.4c0.5-0.1-2.5-0.3-3.9-0.6
		c-7.3-1.5-11.1-5-11.1-5c-0.7-0.9-0.4-1.1-0.2-1.4c2.4-1.5,7.6-5.1,13.7-6.1c7.4-1.2,12.9,2.3,19,6.2c5.5,3.5,11.9,8,21.9,12.4
		c2.5,1.1,5,2.7,7.8,3.7c3,1.1,11.7,3.7,14.4,6.2c4.3,4,5.3,2.4,9.2,3.7c2.9,0.9,3.5,3.9,4.4,8.1c0.9-3.2-0.6-11.4-4.4-12.2
		c-3.3-0.7-3.8-0.3-6-1.7c-1.5-0.9-2.8-2.1-4.2-3.1c-3.5-2.4-6.4-2.8-10.1-4.1c-3.2-1.1-7-3.2-10-4.5c-7-3.1-13.3-6.9-20.7-11.5
		c-6.4-4-13.1-8.4-21.2-7.2c-3.5,0.5-6.4,1.6-9,3c-3.5,1.8-4,2.4-6.8,3.7c-1.8,0.8-3.6,0.5-3.6,0.5c-0.1,0-0.1,0-0.2-0.1
		c-5.1-3.6-10.8-7.4-13.9-8.4c-1.8-0.6-4.2-2.1-6.3-2.8c-3.8-1.3-8.9-0.7-12.4,1c-3.7,1.8-7.2,3.6-10.9,5.8c-4.2,2.5-21,9.2-25.1,11
		c-4,1.7-9.7,4.8-14.1,6.5c-10.3,4.2-11.2,3.8-21,4.8c-1.5,0.2-7,0.6-12.3,3.7c-3,1.8-7.6,5.8-7.6,9.5c0,0,0,0,0,0l0,0l40.3,0
		L40.7,41.6z"/>
	<g>
		<path d="M226.9,49c0,1.1-0.9,1.9-1.9,1.9c-1,0-1.9-0.9-1.9-1.9c0-1.1,0.9-1.9,1.9-1.9C226.1,47.1,226.9,47.9,226.9,49z M223.3,49
			c0,0.9,0.8,1.7,1.7,1.7c0.9,0,1.7-0.7,1.7-1.7c0-0.9-0.8-1.7-1.7-1.7C224.1,47.3,223.3,48.1,223.3,49z M225,47.9
			c0.4,0,0.8,0,0.8,0.5c0,0.3-0.3,0.5-0.6,0.5v0c0.2,0,0.4,0.3,0.5,0.5c0,0.1,0.1,0.3,0.2,0.3c0.1,0.1,0.1,0.1,0.2,0.1V50h-0.1
			c-0.1,0-0.2,0-0.3-0.1c-0.1-0.1-0.2-0.3-0.2-0.4c0-0.1-0.1-0.3-0.2-0.4c-0.1-0.1-0.2-0.1-0.3-0.1h-0.1v0.7c0,0.1,0,0.2,0.1,0.2
			l0.1,0V50h-0.8v-0.1h0.1c0.1,0,0.2,0,0.2-0.2v-1.6c0-0.1-0.1-0.1-0.2-0.2l-0.1,0v-0.1H225z M224.7,48.9h0.1c0.3,0,0.7-0.1,0.7-0.5
			c0-0.3-0.2-0.4-0.5-0.4h-0.2c-0.2,0-0.1,0.1-0.1,0.2V48.9z"/>
	</g>
	<g>
		<path d="M87.9,34.5v0.9c-1,0-1.8,0-2.5,0c-0.5,0-1.1,0-1.6,0c-0.2-0.3-0.4-0.7-0.8-1.1L81,32c-1.5-1.7-2.3-2.7-2.4-2.8
			c-0.2-0.3-0.4-0.4-0.6-0.5c-0.1,0-0.2-0.1-0.2-0.1c-0.1,0-0.1,0-0.1,0c0,0-0.1,0-0.1,0.1c0,0,0,0.1,0,0.2v2.3l0,2
			c0,0.5,0.1,0.9,0.1,1c0,0.1,0.1,0.1,0.3,0.2c0.1,0,0.6,0.1,1.3,0.1v0.9c-1.1,0-2.3-0.1-3.5-0.1c-1.1,0-2.1,0-2.9,0.1v-0.9
			c0.7,0,1.1-0.1,1.3-0.1c0.1,0,0.1-0.1,0.2-0.1c0.1-0.1,0.1-0.2,0.1-0.3c0-0.1,0.1-0.4,0.1-0.8c0.1-1,0.1-1.7,0.1-2.2v-3.7
			l-0.1-3.1c0-0.8,0-1.3-0.1-1.5c0-0.1-0.1-0.2-0.1-0.3c0,0-0.1-0.1-0.2-0.1c-0.1,0-0.6-0.1-1.3-0.1v-0.9c0.9,0,1.8,0.1,2.9,0.1
			c1.2,0,2.4,0,3.5-0.1v0.9c-0.8,0-1.3,0.1-1.4,0.2c-0.1,0.1-0.2,0.2-0.2,0.4c-0.1,0.4-0.1,1.3-0.1,2.5V28l0.2,0.1
			c0.6-0.5,1.5-1.3,2.6-2.5l1.4-1.5c0.5-0.5,0.8-0.8,1-1l0.9-1c0-0.1,0-0.4,0-0.8c0.7,0,1.1,0,1.4,0l2.4,0v0.9
			c-0.6,0-1.1,0.1-1.4,0.1c-0.3,0.1-0.6,0.3-1.1,0.6c-0.4,0.3-1.3,1.1-2.6,2.2L80.5,27c0.3,0.4,0.8,1,1.4,1.7l2.2,2.6
			c1,1.2,1.7,2,2.1,2.4c0.4,0.4,0.6,0.6,0.8,0.7C87.2,34.5,87.5,34.5,87.9,34.5z"/>
		<path d="M89.1,35.4V35c0.3-0.1,0.5-0.3,0.7-0.4c0-0.2,0.1-0.5,0.1-1c0-0.8,0.1-1.4,0.1-1.8v-3.2c0-0.1,0-0.6,0-1.4
			c0-0.5,0-0.9-0.1-1c0,0-0.1-0.1-0.1-0.1c-0.1-0.1-0.5-0.1-1-0.1v-0.5l1.6,0c0.3,0,0.6,0,0.9,0c0.6,0,1.4,0,2.1,0l1.4,0
			c0.2,0,0.5,0,1,0c0,0,0.1,0,0.2,0l0,0.1l-0.1,1c0,0.1,0,0.4-0.1,1h-0.5c0-0.6,0-0.9-0.1-1c0-0.1,0-0.1-0.1-0.1
			c-0.1,0-0.2-0.1-0.6-0.1c-0.5-0.1-0.9-0.1-1.4-0.1c-0.4,0-0.8,0-1.3,0.1c-0.1,0.5-0.1,1.2-0.1,2v1.5c0.3,0,0.7,0,1,0
			c0.1,0,0.5,0,1.2,0c0.3,0,0.4,0,0.4-0.1c0,0,0.1-0.1,0.1-0.1c0.1-0.2,0.1-0.5,0.1-0.9h0.6l0,1.6l0,1.5h-0.6c0-0.5,0-0.9-0.1-1
			c-0.1-0.1-0.2-0.2-0.3-0.2c-0.3,0-0.7-0.1-1.3-0.1c-0.5,0-0.8,0-1.1,0v3c0,0.3,0,0.6,0,0.8c0.4,0,0.8,0,1.4,0c0.5,0,1,0,1.4,0
			c0.4,0,0.7-0.1,0.8-0.1c0,0,0.1-0.1,0.1-0.1c0.1-0.2,0.2-0.7,0.3-1.3h0.6c-0.1,0.9-0.2,1.7-0.2,2.3l-0.1,0.1c-0.3,0-0.7,0-1.3,0
			l-1.1,0c-1.1,0-1.9,0-2.3,0C91.3,35.3,90.6,35.4,89.1,35.4z"/>
		<path d="M97.6,34.8c0.6,0,0.9-0.1,1-0.1c0.1,0,0.1,0,0.1-0.1c0,0,0.1-0.1,0.1-0.3c0-0.2,0.1-0.6,0.1-1.3c0-0.4,0-0.9,0-1.5v-2.3
			l0-2c0-0.3,0-0.6,0-0.7c0-0.1-0.1-0.2-0.1-0.2c0,0-0.1-0.1-0.2-0.1c-0.1,0-0.4-0.1-0.9-0.1v-0.6c0.6,0,1,0.1,1.3,0.1l1,0l0.6,0
			c1,1.3,2.1,2.7,3.5,4.4c1,1.2,1.8,2.1,2.5,2.8v-1.6c0-2.5,0-4-0.1-4.5c0-0.2-0.1-0.3-0.1-0.3c-0.1-0.1-0.5-0.1-1.1-0.1v-0.6
			c0.6,0,1.1,0.1,1.6,0.1c0.5,0,1.1,0,1.8-0.1v0.6c-0.6,0-0.9,0.1-1,0.1c0,0-0.1,0.1-0.1,0.1c-0.1,0.2-0.1,0.8-0.1,1.6
			c0,0.8,0,1.5,0,1.9c0,3.1,0,5,0.1,5.7l-0.1,0.1c-0.4-0.1-0.8-0.1-1.2-0.2c-1.5-1.7-3.7-4.2-6.5-7.6v3.5c0,0.7,0,1.5,0,2.3
			c0,0.5,0,0.9,0.1,1c0,0.1,0.1,0.1,0.1,0.1s0.1,0.1,0.2,0.1c0.3,0,0.5,0.1,0.7,0.1c0,0,0.1,0,0.1,0v0.6c-0.9,0-1.4,0-1.5,0
			c-0.5,0-1.1,0-1.9,0V34.8z"/>
		<path d="M110,34.8c0.6,0,0.9-0.1,1-0.1c0.1,0,0.1,0,0.1-0.1c0,0,0.1-0.1,0.1-0.3c0-0.2,0.1-0.6,0.1-1.3c0-0.4,0-0.9,0-1.5v-2.3
			l0-2c0-0.3,0-0.6,0-0.7c0-0.1-0.1-0.2-0.1-0.2c0,0-0.1-0.1-0.2-0.1c-0.1,0-0.4-0.1-0.9-0.1v-0.6c0.6,0,1,0.1,1.3,0.1l1,0l0.6,0
			c1,1.3,2.1,2.7,3.5,4.4c1,1.2,1.8,2.1,2.5,2.8v-1.6c0-2.5,0-4-0.1-4.5c0-0.2-0.1-0.3-0.1-0.3c-0.1-0.1-0.5-0.1-1.1-0.1v-0.6
			c0.6,0,1.1,0.1,1.6,0.1c0.5,0,1.1,0,1.8-0.1v0.6c-0.6,0-0.9,0.1-1,0.1c0,0-0.1,0.1-0.1,0.1c-0.1,0.2-0.1,0.8-0.1,1.6
			c0,0.8,0,1.5,0,1.9c0,3.1,0,5,0.1,5.7l-0.1,0.1c-0.4-0.1-0.8-0.1-1.2-0.2c-1.5-1.7-3.7-4.2-6.5-7.6v3.5c0,0.7,0,1.5,0,2.3
			c0,0.5,0,0.9,0.1,1c0,0.1,0.1,0.1,0.1,0.1c0,0,0.1,0.1,0.2,0.1c0.3,0,0.5,0.1,0.7,0.1c0,0,0.1,0,0.1,0v0.6c-0.9,0-1.4,0-1.5,0
			c-0.5,0-1.1,0-1.9,0V34.8z"/>
		<path d="M122.7,35.4V35c0.3-0.1,0.5-0.3,0.7-0.4c0-0.2,0.1-0.5,0.1-1c0-0.8,0.1-1.4,0.1-1.8v-3.2c0-0.1,0-0.6,0-1.4
			c0-0.5,0-0.9-0.1-1c0,0-0.1-0.1-0.1-0.1c-0.1-0.1-0.5-0.1-1-0.1v-0.5l1.6,0c0.3,0,0.6,0,0.9,0c0.6,0,1.4,0,2.1,0l1.4,0
			c0.2,0,0.5,0,1,0c0,0,0.1,0,0.2,0l0.1,0.1l-0.1,1c0,0.1,0,0.4-0.1,1H129c0-0.6,0-0.9-0.1-1c0-0.1,0-0.1-0.1-0.1
			c-0.1,0-0.2-0.1-0.6-0.1c-0.5-0.1-0.9-0.1-1.4-0.1c-0.4,0-0.8,0-1.3,0.1c-0.1,0.5-0.1,1.2-0.1,2v1.5c0.3,0,0.7,0,1,0
			c0.1,0,0.5,0,1.2,0c0.3,0,0.4,0,0.4-0.1c0,0,0.1-0.1,0.1-0.1c0.1-0.2,0.1-0.5,0.1-0.9h0.6l0,1.6l0,1.5h-0.6c0-0.5,0-0.9-0.1-1
			c-0.1-0.1-0.2-0.2-0.3-0.2c-0.3,0-0.7-0.1-1.3-0.1c-0.5,0-0.8,0-1.1,0v3c0,0.3,0,0.6,0,0.8c0.4,0,0.8,0,1.4,0c0.5,0,1,0,1.4,0
			c0.4,0,0.7-0.1,0.8-0.1c0,0,0.1-0.1,0.1-0.1c0.1-0.2,0.2-0.7,0.3-1.3h0.6c-0.1,0.9-0.2,1.7-0.2,2.3l-0.1,0.1c-0.3,0-0.7,0-1.3,0
			l-1.1,0c-1.1,0-1.9,0-2.3,0C125,35.3,124.2,35.4,122.7,35.4z"/>
		<path d="M138,28.1h-0.6c0-0.5,0-0.9-0.1-1.2c-0.1-0.2-0.4-0.4-0.8-0.5c-0.4-0.2-0.8-0.2-1.2-0.2c-0.6,0-1.1,0.2-1.5,0.5
			c-0.3,0.3-0.5,0.7-0.5,1.1c0,0.3,0.1,0.6,0.2,0.8c0.1,0.2,0.2,0.3,0.4,0.5c0.2,0.1,0.5,0.2,0.8,0.3c0.3,0.1,0.6,0.1,1.1,0.2
			c0.5,0.1,0.8,0.1,0.9,0.2c0.4,0.1,0.7,0.2,0.9,0.4c0.2,0.1,0.4,0.3,0.6,0.5c0.1,0.2,0.3,0.4,0.3,0.7c0.1,0.3,0.1,0.6,0.1,0.9
			c0,0.6-0.1,1.1-0.4,1.6c-0.2,0.3-0.4,0.7-0.8,0.9c-0.3,0.3-0.7,0.5-1,0.6c-0.6,0.2-1.2,0.3-2,0.3c-0.6,0-1.1-0.1-1.5-0.2
			c-0.5-0.1-0.9-0.3-1.5-0.6c0.1-0.5,0.2-1.4,0.2-2.4h0.6c0,0.3,0,0.8,0.1,1.3c0.2,0.3,0.5,0.5,0.9,0.8c0.4,0.2,0.9,0.3,1.4,0.3
			c0.4,0,0.8-0.1,1.2-0.2c0.3-0.2,0.6-0.4,0.8-0.7c0.2-0.3,0.2-0.6,0.2-0.9c0-0.3-0.1-0.6-0.2-0.8c-0.1-0.2-0.3-0.4-0.5-0.5
			c-0.2-0.1-0.6-0.3-1.2-0.4c-0.9-0.2-1.4-0.3-1.7-0.4c-0.4-0.1-0.7-0.3-1-0.5c-0.2-0.2-0.4-0.5-0.6-0.8c-0.1-0.3-0.2-0.7-0.2-1.1
			c0-0.5,0.1-1,0.3-1.5c0.2-0.4,0.5-0.8,0.9-1c0.4-0.2,0.8-0.4,1.2-0.5c0.5-0.1,0.9-0.2,1.4-0.2c0.5,0,1,0,1.4,0.1
			c0.5,0.1,0.9,0.2,1.2,0.4l0.1,0.2c-0.1,0.3-0.1,0.6-0.1,0.9C138,27.2,138,27.6,138,28.1z"/>
		<path d="M139.1,35.4v-0.6c0.4,0,0.6-0.1,0.7-0.1c0.1,0,0.1-0.1,0.2-0.1c0.1,0,0.1-0.1,0.2-0.2c0.1-0.1,0.2-0.5,0.5-1.1
			c0.1-0.3,0.4-0.9,0.7-1.7l1.8-4.5l0.6-1.6h1l3.2,7.4l0.4,1l0.3,0.6c0,0.1,0.1,0.1,0.1,0.2c0,0,0.1,0.1,0.1,0.1c0.1,0,0.2,0,0.4,0
			c0.1,0,0.2,0,0.3,0v0.6l-2,0l-2.5,0v-0.6c0.6,0,0.9-0.1,1-0.1c0.1,0,0.1-0.1,0.1-0.2c0-0.1-0.1-0.3-0.2-0.6l-0.6-1.5h-3.6
			l-0.3,0.8c-0.2,0.6-0.4,1.1-0.4,1.2c0,0.1,0,0.2,0.1,0.2c0.1,0.1,0.4,0.1,1,0.1v0.6l-1.6,0L139.1,35.4z M142.2,31.6
			c0.4,0,0.9,0,1.5,0c0.5,0,1,0,1.5,0l-1.5-3.6L142.2,31.6z"/>
		<path d="M156.3,25.4h0.6c0.2,0.5,0.3,0.9,0.5,1.4c0.7,1.9,1.2,3,1.3,3.4l0.8,2.1l0.8-3.2c0.3-1.3,0.5-2,0.5-2.3c0-0.1,0-0.1,0-0.2
			c0-0.1,0-0.2-0.1-0.2c0-0.1-0.1-0.1-0.2-0.1c0,0-0.3,0-0.9-0.1v-0.6c0.8,0,1.4,0.1,1.5,0.1l1.7-0.1v0.6c-0.1,0-0.1,0-0.2,0
			c-0.3,0-0.5,0-0.5,0.1c-0.1,0-0.1,0.1-0.2,0.2c-0.1,0.1-0.2,0.6-0.5,1.5c-0.3,0.9-0.6,2.3-1.1,4.2c-0.5,1.9-0.8,3-0.8,3.4h-1.1
			l-0.8-2l-1.9-4.9c-0.2,0.4-0.9,2.1-2.2,5.1l-0.8,1.9h-1l-1.6-7.5c-0.2-0.8-0.3-1.3-0.4-1.5c-0.1-0.1-0.1-0.2-0.2-0.2
			c-0.1-0.1-0.4-0.1-0.7-0.1v-0.6l2,0.1l2.3-0.1v0.6c-0.4,0-0.6,0-0.7,0c-0.1,0-0.2,0.1-0.3,0.1c-0.1,0.1-0.1,0.1-0.1,0.2
			c0,0.1,0,0.1,0,0.2c0,0.1,0.1,0.3,0.1,0.8c0.2,0.9,0.3,1.6,0.4,1.9l0.6,2.8c0.1-0.1,0.2-0.6,0.6-1.4l0.9-2.1l1.1-2.7
			C156.1,25.9,156.2,25.7,156.3,25.4z"/>
	</g>
	<path d="M57.2,37.8h-0.8c0-0.8,0-1.3-0.1-1.6c-0.2-0.3-0.6-0.5-1.1-0.8c-0.5-0.2-1.1-0.3-1.7-0.3c-0.9,0-1.6,0.2-2.1,0.7
		c-0.5,0.5-0.7,1-0.7,1.6c0,0.4,0.1,0.8,0.2,1.1c0.1,0.3,0.3,0.5,0.6,0.6c0.3,0.2,0.6,0.3,1.1,0.4c0.4,0.1,0.9,0.2,1.6,0.3
		c0.7,0.1,1.1,0.2,1.3,0.2c0.5,0.1,1,0.3,1.3,0.5c0.3,0.2,0.6,0.4,0.8,0.7c0.2,0.3,0.4,0.6,0.5,1c0.1,0.4,0.2,0.8,0.2,1.3
		c0,0.8-0.2,1.6-0.5,2.2c-0.3,0.5-0.6,0.9-1.1,1.3c-0.5,0.4-1,0.7-1.4,0.9c-0.8,0.3-1.7,0.5-2.9,0.5c-0.8,0-1.5-0.1-2.2-0.2
		c-0.6-0.2-1.3-0.4-2.1-0.8c0.2-0.8,0.3-1.9,0.3-3.4h0.8c0,0.5,0,1.1,0.1,1.8c0.3,0.4,0.7,0.8,1.3,1.1c0.6,0.3,1.3,0.5,2,0.5
		c0.6,0,1.2-0.1,1.7-0.3c0.5-0.2,0.8-0.5,1.1-0.9c0.2-0.4,0.3-0.8,0.3-1.3c0-0.4-0.1-0.8-0.2-1.1c-0.2-0.3-0.4-0.5-0.7-0.7
		c-0.3-0.2-0.9-0.4-1.7-0.6c-1.2-0.3-2-0.4-2.4-0.5c-0.6-0.2-1-0.4-1.4-0.7c-0.3-0.3-0.6-0.7-0.8-1.2c-0.2-0.5-0.3-1-0.3-1.5
		c0-0.7,0.2-1.4,0.5-2c0.3-0.6,0.7-1.1,1.2-1.4c0.5-0.3,1.1-0.6,1.7-0.7c0.6-0.1,1.3-0.2,2-0.2c0.7,0,1.4,0.1,2,0.2
		c0.7,0.1,1.2,0.3,1.7,0.5l0.1,0.2c-0.1,0.4-0.2,0.8-0.2,1.3C57.2,36.6,57.2,37.2,57.2,37.8z"/>
	<path d="M61.1,48.1v-0.6c0.6,0,0.9-0.1,1-0.1s0.2-0.1,0.2-0.3c0.1-0.2,0.1-0.8,0.1-1.8v-4.2c0-1.1,0-1.8,0-1.9h-1
		c-0.5,0-0.9,0-1.3,0c-0.2,0-0.2,0-0.3,0.1c0,0-0.1,0.1-0.1,0.2c-0.1,0.3-0.1,0.7-0.1,1.1H59c0-0.9,0-1.5,0-1.6c0-0.2,0-0.4-0.1-0.7
		l0.1-0.1c0.2,0,0.4,0,0.7,0c0.4,0,1.2,0,2.3,0h2.8c1.2,0,1.9,0,2.3,0c0.2,0,0.4,0,0.6,0l0.1,0.1c0,0.3-0.1,0.5-0.1,0.7
		c0,0,0,0.5,0,1.5h-0.6c0-0.4,0-0.7-0.1-1c0-0.2-0.1-0.3-0.1-0.3c0,0-0.1,0-0.2,0c-0.4,0-0.8-0.1-1.4-0.1h-1c0,0.2,0,0.8,0,1.9v4.2
		c0,1,0,1.6,0.1,1.8c0,0.1,0.1,0.2,0.2,0.3c0.1,0.1,0.4,0.1,1,0.1v0.6C64.7,48,64,48,63.3,48C62.7,48,61.9,48,61.1,48.1z"/>
	<path d="M66.7,48.1v-0.6c0.4,0,0.6-0.1,0.7-0.1c0.1,0,0.1-0.1,0.2-0.1c0.1,0,0.1-0.1,0.2-0.2c0.1-0.1,0.2-0.4,0.5-1.1
		c0.1-0.3,0.4-0.9,0.7-1.7l1.8-4.5l0.6-1.6h1l3.1,7.2l0.4,0.9l0.3,0.6c0,0.1,0.1,0.1,0.1,0.2c0,0,0.1,0.1,0.1,0.1c0.1,0,0.2,0,0.4,0
		c0.1,0,0.2,0,0.3,0v0.6l-1.9,0l-2.4,0v-0.6c0.6,0,0.9-0.1,0.9-0.1c0.1,0,0.1-0.1,0.1-0.2c0-0.1-0.1-0.3-0.2-0.6L73,45.1h-3.6
		L69.1,46c-0.2,0.6-0.3,1-0.3,1.2c0,0.1,0,0.2,0.1,0.2c0.1,0.1,0.4,0.1,1,0.1v0.6l-1.6,0L66.7,48.1z M69.7,44.3c0.4,0,0.9,0,1.5,0
		c0.5,0,1,0,1.4,0l-1.5-3.6L69.7,44.3z"/>
	<path d="M77.8,48.1v-0.6c0.6,0,0.9-0.1,1-0.1c0.1-0.1,0.2-0.1,0.2-0.3c0.1-0.2,0.1-0.8,0.1-1.8v-4.2c0-1.1,0-1.8,0-1.9h-1
		c-0.5,0-0.9,0-1.3,0c-0.2,0-0.2,0-0.3,0.1c0,0-0.1,0.1-0.1,0.2c-0.1,0.3-0.1,0.7-0.1,1.1h-0.6c0-0.9,0-1.5,0-1.6
		c0-0.2,0-0.4-0.1-0.7l0.1-0.1c0.2,0,0.4,0,0.7,0c0.4,0,1.2,0,2.3,0h2.8c1.2,0,1.9,0,2.3,0c0.2,0,0.4,0,0.6,0l0.1,0.1
		c0,0.3-0.1,0.5-0.1,0.7c0,0,0,0.5,0,1.5h-0.6c0-0.4,0-0.7-0.1-1c0-0.2-0.1-0.3-0.1-0.3c0,0-0.1,0-0.2,0c-0.4,0-0.8-0.1-1.4-0.1h-1
		c0,0.2,0,0.8,0,1.9v4.2c0,1,0,1.6,0.1,1.8c0,0.1,0.1,0.2,0.2,0.3c0.1,0.1,0.4,0.1,1,0.1v0.6c-0.9,0-1.6-0.1-2.3-0.1
		C79.4,48,78.7,48,77.8,48.1z"/>
	<path d="M86,48.1v-0.4c0.3-0.1,0.5-0.3,0.7-0.4c0-0.2,0.1-0.5,0.1-0.9c0-0.8,0.1-1.4,0.1-1.7v-3.1c0-0.1,0-0.6,0-1.4
		c0-0.5,0-0.8-0.1-1c0,0-0.1-0.1-0.1-0.1c-0.1-0.1-0.5-0.1-1-0.1v-0.5l1.6,0c0.3,0,0.6,0,0.9,0c0.6,0,1.3,0,2.1,0l1.4,0
		c0.2,0,0.5,0,1,0c0,0,0.1,0,0.2,0l0,0.1l-0.1,1c0,0.1,0,0.4-0.1,1h-0.5c0-0.5,0-0.9-0.1-1c0-0.1,0-0.1-0.1-0.1
		c-0.1,0-0.2-0.1-0.6-0.1c-0.5-0.1-0.9-0.1-1.3-0.1c-0.4,0-0.8,0-1.3,0.1c-0.1,0.5-0.1,1.2-0.1,2v1.4c0.3,0,0.6,0,1,0
		c0.1,0,0.5,0,1.1,0c0.2,0,0.4,0,0.4,0c0,0,0.1-0.1,0.1-0.1c0.1-0.2,0.1-0.5,0.1-0.9h0.6l0,1.5l0,1.5h-0.6c0-0.5,0-0.9-0.1-1
		c-0.1-0.1-0.2-0.1-0.3-0.2c-0.3,0-0.7-0.1-1.2-0.1c-0.5,0-0.8,0-1.1,0v2.9c0,0.3,0,0.6,0,0.8c0.4,0,0.8,0,1.3,0c0.5,0,1,0,1.4,0
		c0.4,0,0.7-0.1,0.8-0.1c0,0,0.1-0.1,0.1-0.1c0.1-0.2,0.2-0.6,0.3-1.3h0.6c-0.1,0.9-0.2,1.7-0.2,2.3L93,48c-0.3,0-0.7,0-1.3,0
		l-1.1,0c-1.1,0-1.9,0-2.3,0C88.2,48,87.4,48.1,86,48.1z"/>
	<path d="M112.9,47.5c0.5,0,0.9-0.1,0.9-0.1c0.1,0,0.1,0,0.1-0.1c0,0,0.1-0.1,0.1-0.3c0-0.2,0.1-0.6,0.1-1.3c0-0.4,0-0.9,0-1.5v-2.2
		l0-2c0-0.3,0-0.6,0-0.7c0-0.1-0.1-0.2-0.1-0.2c0,0-0.1-0.1-0.2-0.1c-0.1,0-0.4-0.1-0.9-0.1v-0.6c0.6,0,1,0,1.3,0l1,0l0.6,0
		c1,1.2,2.1,2.7,3.5,4.3c1,1.2,1.8,2.1,2.4,2.7v-1.6c0-2.5,0-3.9-0.1-4.4c0-0.2-0.1-0.3-0.1-0.3c-0.1-0.1-0.5-0.1-1.1-0.1v-0.6
		c0.6,0,1.1,0,1.6,0c0.5,0,1,0,1.8,0V39c-0.6,0-0.9,0.1-1,0.1c0,0-0.1,0.1-0.1,0.1c-0.1,0.2-0.1,0.8-0.1,1.6c0,0.8,0,1.4,0,1.8
		c0,3.1,0,4.9,0.1,5.6l-0.1,0.1c-0.4-0.1-0.8-0.1-1.2-0.2c-1.5-1.7-3.6-4.2-6.3-7.5V44c0,0.7,0,1.5,0,2.2c0,0.5,0,0.9,0.1,1
		c0,0.1,0.1,0.1,0.1,0.1c0,0,0.1,0.1,0.2,0.1c0.3,0,0.5,0.1,0.7,0.1c0,0,0.1,0,0.1,0v0.6c-0.9,0-1.4,0-1.5,0c-0.4,0-1.1,0-1.8,0
		V47.5z"/>
	<path d="M129.2,38.4V39c-0.5,0-0.7,0-0.8,0.1c-0.1,0-0.2,0-0.2,0.1c0,0-0.1,0.1-0.1,0.1c0,0.1-0.1,0.2-0.1,0.4c0,0.1,0,0.3,0,0.7
		c0,1.1,0,1.7,0,1.8V45l0,1.3c0,0.5,0,0.8,0.1,0.9c0,0.1,0,0.1,0.1,0.1c0,0,0.1,0.1,0.2,0.1c0.1,0,0.4,0,0.8,0v0.6
		c-0.8,0-1.6,0-2.4,0c-0.7,0-1.4,0-2,0v-0.6c0.5,0,0.8,0,0.8,0c0.1,0,0.2,0,0.2-0.1c0,0,0.1-0.1,0.1-0.1c0-0.1,0-0.3,0.1-0.7
		c0-0.6,0.1-1.1,0.1-1.5v-2.9c0-0.9,0-1.5,0-1.8c0-0.6-0.1-1-0.1-1.1c0-0.1,0-0.1-0.1-0.1c0,0-0.1-0.1-0.2-0.1c-0.1,0-0.4,0-0.9-0.1
		v-0.6c0.6,0,1.2,0,2,0C127.7,38.4,128.5,38.4,129.2,38.4z"/>
	<path d="M134.8,48.1c-0.4-1-0.8-1.9-1.1-2.8l-1-2.3c-0.8-1.8-1.2-2.9-1.4-3.3c-0.2-0.4-0.3-0.6-0.4-0.6c-0.1-0.1-0.4-0.1-0.9-0.1
		v-0.6c1.1,0,1.8,0,2,0l2.5,0V39c-0.4,0-0.7,0-0.8,0.1c-0.1,0-0.2,0.1-0.2,0.1c0,0-0.1,0.1-0.1,0.2c0,0.1,0.2,0.6,0.5,1.3
		c0.2,0.4,0.3,0.7,0.3,0.7c0,0,0,0.1,0,0.1l1.8,4.3l1.5-3.8c0-0.1,0.2-0.5,0.5-1.3c0.2-0.6,0.3-0.9,0.4-1.1c0-0.1,0-0.1,0-0.2
		c0-0.1,0-0.1,0-0.2c0,0-0.1-0.1-0.1-0.1c0,0-0.1,0-0.2,0c-0.3,0-0.6,0-0.8,0v-0.6l1.8,0l1.5,0V39c-0.4,0-0.7,0.1-0.8,0.1
		c-0.1,0.1-0.4,0.6-0.8,1.6l-0.5,1.2l-0.9,2.2c-0.8,1.9-1.3,3.2-1.6,4H134.8z"/>
	<path d="M142.2,48.1v-0.4c0.3-0.1,0.5-0.3,0.7-0.4c0-0.2,0.1-0.5,0.1-0.9c0-0.8,0.1-1.4,0.1-1.7v-3.1c0-0.1,0-0.6,0-1.4
		c0-0.5,0-0.8-0.1-1c0,0-0.1-0.1-0.1-0.1c-0.1-0.1-0.5-0.1-1-0.1v-0.5l1.6,0c0.3,0,0.6,0,0.9,0c0.6,0,1.3,0,2.1,0l1.4,0
		c0.2,0,0.5,0,1,0c0,0,0.1,0,0.2,0l0,0.1l-0.1,1c0,0.1,0,0.4-0.1,1h-0.5c0-0.5,0-0.9-0.1-1c0-0.1,0-0.1-0.1-0.1
		c-0.1,0-0.2-0.1-0.6-0.1c-0.5-0.1-0.9-0.1-1.3-0.1c-0.4,0-0.8,0-1.3,0.1c-0.1,0.5-0.1,1.2-0.1,2v1.4c0.3,0,0.6,0,1,0
		c0.1,0,0.5,0,1.1,0c0.2,0,0.4,0,0.4,0c0,0,0.1-0.1,0.1-0.1c0.1-0.2,0.1-0.5,0.1-0.9h0.6l0,1.5l0,1.5h-0.6c0-0.5,0-0.9-0.1-1
		c-0.1-0.1-0.2-0.1-0.3-0.2c-0.3,0-0.7-0.1-1.2-0.1c-0.5,0-0.8,0-1.1,0v2.9c0,0.3,0,0.6,0,0.8c0.4,0,0.8,0,1.3,0c0.5,0,1,0,1.4,0
		c0.4,0,0.7-0.1,0.8-0.1c0,0,0.1-0.1,0.1-0.1c0.1-0.2,0.2-0.6,0.3-1.3h0.6c-0.1,0.9-0.2,1.7-0.2,2.3l-0.1,0.1c-0.3,0-0.7,0-1.3,0
		l-1.1,0c-1.1,0-1.9,0-2.3,0C144.4,48,143.6,48.1,142.2,48.1z"/>
	<path d="M149.9,39v-0.6c0.1,0,0.5,0,1.1,0c0.3,0,0.7,0,1.3,0c0.5,0,0.9,0,1.2,0c0.6,0,1,0,1.4,0c0.7,0,1.3,0.1,1.6,0.2
		c0.4,0.1,0.7,0.3,0.9,0.6c0.3,0.3,0.4,0.7,0.4,1.2c0,0.6-0.2,1.1-0.5,1.5c-0.3,0.5-0.9,0.8-1.6,1.1c0.1,0.2,0.2,0.4,0.4,0.6
		c0.1,0.2,0.2,0.3,0.3,0.4c0,0,0.1,0.1,0.1,0.1l1.1,1.6c0.3,0.4,0.4,0.7,0.5,0.7c0.3,0.5,0.6,0.7,0.6,0.8c0.1,0.1,0.2,0.1,0.2,0.2
		c0.1,0,0.2,0.1,0.4,0.1v0.6c-0.7,0-1.2,0-1.5,0c-0.4,0-0.7,0-1.1,0c0-0.1-0.1-0.2-0.2-0.4l-1.5-2.4c-0.4-0.7-0.8-1.3-1.1-1.7
		c-0.1-0.2-0.3-0.4-0.4-0.5l0.1-0.2c0.6,0,1,0,1.3-0.2c0.3-0.1,0.5-0.4,0.7-0.7c0.2-0.3,0.3-0.7,0.3-1.1c0-0.4-0.1-0.8-0.3-1.1
		c-0.2-0.3-0.5-0.5-0.8-0.6c-0.2-0.1-0.5-0.1-1-0.1c-0.2,0-0.4,0-0.7,0.1c0,0.2,0,0.5,0,1.1c0,1.3,0,2.2,0,2.6c0,0.7,0,1.4,0,2.2
		c0,1,0,1.5,0,1.6c0,0.3,0,0.4,0.1,0.5c0,0,0,0.1,0.1,0.1c0,0,0.1,0.1,0.2,0.1c0.1,0,0.4,0,0.8,0v0.6c-0.8,0-1.6,0-2.4,0
		c-0.7,0-1.4,0-2,0v-0.6c0.5,0,0.8,0,0.9-0.1c0.1,0,0.1,0,0.1-0.1c0,0,0-0.1,0.1-0.2c0-0.2,0.1-0.5,0.1-0.8l0.1-2v-2.6l0-1.5
		c0-0.6,0-0.9-0.1-1c0,0-0.1-0.1-0.1-0.1C150.9,39,150.5,39,149.9,39z"/>
	<path d="M166.8,40.9h-0.6c0-0.5,0-0.9-0.1-1.1c-0.1-0.2-0.4-0.4-0.7-0.5c-0.4-0.2-0.7-0.2-1.2-0.2c-0.6,0-1.1,0.2-1.5,0.5
		c-0.3,0.3-0.5,0.7-0.5,1.1c0,0.3,0.1,0.6,0.2,0.7c0.1,0.2,0.2,0.3,0.4,0.4c0.2,0.1,0.4,0.2,0.8,0.3c0.3,0.1,0.6,0.1,1.1,0.2
		c0.5,0.1,0.8,0.1,0.9,0.2c0.4,0.1,0.7,0.2,0.9,0.3c0.2,0.1,0.4,0.3,0.6,0.5c0.1,0.2,0.2,0.4,0.3,0.7c0.1,0.3,0.1,0.6,0.1,0.9
		c0,0.6-0.1,1.1-0.4,1.6c-0.2,0.3-0.4,0.6-0.8,0.9c-0.3,0.3-0.7,0.5-1,0.6c-0.6,0.2-1.2,0.3-2,0.3c-0.6,0-1.1-0.1-1.5-0.2
		c-0.4-0.1-0.9-0.3-1.5-0.5c0.1-0.5,0.2-1.3,0.2-2.4h0.6c0,0.3,0,0.7,0.1,1.2c0.2,0.3,0.5,0.5,0.9,0.8c0.4,0.2,0.9,0.3,1.4,0.3
		c0.4,0,0.8-0.1,1.2-0.2c0.3-0.2,0.6-0.4,0.7-0.6c0.2-0.3,0.2-0.6,0.2-0.9c0-0.3-0.1-0.5-0.2-0.8c-0.1-0.2-0.3-0.4-0.5-0.5
		c-0.2-0.1-0.6-0.3-1.2-0.4c-0.8-0.2-1.4-0.3-1.6-0.4c-0.4-0.1-0.7-0.3-1-0.5c-0.2-0.2-0.4-0.5-0.5-0.8c-0.1-0.3-0.2-0.7-0.2-1
		c0-0.5,0.1-1,0.3-1.4c0.2-0.4,0.5-0.8,0.9-1c0.4-0.2,0.8-0.4,1.2-0.5c0.4-0.1,0.9-0.2,1.4-0.2c0.5,0,1,0,1.4,0.1
		c0.5,0.1,0.9,0.2,1.2,0.4l0.1,0.2c-0.1,0.3-0.1,0.6-0.1,0.9C166.8,40.1,166.8,40.4,166.8,40.9z"/>
	<path d="M173,38.4V39c-0.5,0-0.7,0-0.8,0.1c-0.1,0-0.2,0-0.2,0.1c0,0-0.1,0.1-0.1,0.1c0,0.1-0.1,0.2-0.1,0.4c0,0.1,0,0.3,0,0.7
		c0,1.1,0,1.7,0,1.8V45l0,1.3c0,0.5,0,0.8,0.1,0.9c0,0.1,0,0.1,0.1,0.1c0,0,0.1,0.1,0.2,0.1c0.1,0,0.4,0,0.8,0v0.6
		c-0.8,0-1.6,0-2.4,0c-0.7,0-1.4,0-2,0v-0.6c0.5,0,0.8,0,0.8,0c0.1,0,0.2,0,0.2-0.1c0,0,0.1-0.1,0.1-0.1c0-0.1,0-0.3,0.1-0.7
		c0-0.6,0.1-1.1,0.1-1.5v-2.9c0-0.9,0-1.5,0-1.8c0-0.6-0.1-1-0.1-1.1c0-0.1,0-0.1-0.1-0.1c0,0-0.1-0.1-0.2-0.1c-0.1,0-0.4,0-0.9-0.1
		v-0.6c0.6,0,1.2,0,2,0C171.4,38.4,172.2,38.4,173,38.4z"/>
	<path d="M175.9,48.1v-0.6c0.6,0,0.9-0.1,1-0.1c0.1-0.1,0.2-0.1,0.2-0.3c0.1-0.2,0.1-0.8,0.1-1.8v-4.2c0-1.1,0-1.8,0-1.9h-1
		c-0.5,0-0.9,0-1.3,0c-0.2,0-0.2,0-0.3,0.1c0,0-0.1,0.1-0.1,0.2c-0.1,0.3-0.1,0.7-0.1,1.1h-0.6c0-0.9,0-1.5,0-1.6
		c0-0.2,0-0.4-0.1-0.7l0.1-0.1c0.2,0,0.4,0,0.7,0c0.4,0,1.2,0,2.3,0h2.8c1.2,0,1.9,0,2.3,0c0.2,0,0.4,0,0.6,0l0.1,0.1
		c0,0.3-0.1,0.5-0.1,0.7c0,0,0,0.5,0,1.5H182c0-0.4,0-0.7-0.1-1c0-0.2-0.1-0.3-0.1-0.3c0,0-0.1,0-0.2,0c-0.4,0-0.8-0.1-1.4-0.1h-1
		c0,0.2,0,0.8,0,1.9v4.2c0,1,0,1.6,0.1,1.8c0,0.1,0.1,0.2,0.2,0.3c0.1,0.1,0.4,0.1,1,0.1v0.6c-0.9,0-1.6-0.1-2.3-0.1
		C177.5,48,176.8,48,175.9,48.1z"/>
	<path d="M188.9,43l0.9-1.4c0.1-0.3,0.6-1,1.3-2.3c0.3-0.4,0.4-0.7,0.5-0.9h1.1v0.3c-0.6,0.8-1.2,1.6-1.8,2.7c-0.6,1-1,1.7-1.2,2
		c-0.1,0.2-0.2,0.4-0.2,0.5c0,0.1,0,0.3,0,0.5v1.2c0,0.6,0,1,0,1.3c0,0.3,0.1,0.4,0.1,0.5c0,0.1,0.1,0.1,0.2,0.1
		c0.1,0,0.4,0,0.9,0.1v0.6c-0.9,0-1.7,0-2.4,0c-0.7,0-1.4,0-2.1,0v-0.6c0.5,0,0.8,0,0.9-0.1c0.1,0,0.2-0.1,0.2-0.1
		c0,0,0.1-0.2,0.1-0.4c0-0.5,0-1,0-1.3v-1.3c0-0.1-0.1-0.3-0.3-0.7c-0.4-0.8-0.9-1.6-1.4-2.3c-0.4-0.6-0.8-1.1-1.1-1.5
		c-0.2-0.2-0.4-0.4-0.5-0.4c-0.1,0-0.3,0-0.6,0v-0.5l1.5-0.3c0.2-0.1,0.5-0.1,0.8-0.2c0.3,0.2,0.5,0.3,0.6,0.4
		c0.1,0.1,0.3,0.4,0.5,0.7c0.3,0.5,0.7,1.1,1,1.7C188.4,42.1,188.8,42.7,188.9,43z"/>
	<g>
		<path d="M97.6,39v-0.8l3.1,0.1l1.3,0l1.3,0l0.4,0V39c-0.7,0-1.1,0.1-1.3,0.2c-0.1,0.1-0.2,0.2-0.2,0.3c-0.1,0.4-0.1,1.3-0.1,2.7
			v2.3l0,1.1c0,1.2,0,1.9,0,2.2c0.1,0.6,0.2,1.1,0.4,1.5c0.2,0.4,0.6,0.7,1.1,0.9c0.5,0.2,1.1,0.3,1.9,0.3c0.9,0,1.6-0.2,2.1-0.5
			c0.5-0.3,0.9-0.7,1.1-1.2c0.2-0.5,0.3-1.4,0.3-2.8v-2c0-1.7,0-2.8,0-3.1c0-0.8-0.1-1.3-0.1-1.5c0-0.1-0.1-0.2-0.2-0.2
			c-0.2-0.1-0.7-0.2-1.4-0.2v-0.8c1.2,0,1.8,0.1,2.1,0.1c0.1,0,0.1,0,0.3,0l2.1-0.1V39c-0.6,0-1,0-1.1,0.1c-0.1,0.1-0.1,0.2-0.2,0.3
			c0,0.1-0.1,0.8-0.1,2c0,1.2-0.1,2.1-0.1,2.8v2.3c0,0.6,0,1.2-0.1,1.8c-0.1,0.6-0.3,1.2-0.5,1.6c-0.3,0.4-0.6,0.8-1.1,1.2
			c-0.5,0.4-1,0.6-1.6,0.8c-0.6,0.2-1.4,0.3-2.2,0.3c-1,0-1.9-0.1-2.7-0.4c-0.6-0.2-1.1-0.5-1.5-0.8c-0.4-0.3-0.7-0.7-0.9-1.1
			c-0.2-0.4-0.3-0.8-0.4-1.2c0-0.2,0-0.9,0-1.9l0-1.9v-2.5c0-0.9,0-1.7,0-2.5c0-0.3-0.1-0.5-0.1-0.6c0-0.1-0.1-0.2-0.2-0.3L97.6,39z
			"/>
	</g>
</g>
</svg>
