<svg width="445" height="128" viewBox="0 0 445 128" xmlns="http://www.w3.org/2000/svg"><title>wufoo-white</title><g fill="#FFF" fill-rule="evenodd"><path d="M40.157 115.716L0 25.366l27.224-5.297 12.3 34.017c3.813 10.618 7.955 22.92 11.383 32.302l.28-.056c-.67-10.938-.92-22.687-1.053-34.603l-.74-35.975 27.085-5.27 12.993 35.338C93.26 56.3 96.406 65.737 99.745 76.156l.28-.054c-.645-10.798-1.145-22.352-1.62-33.765L97.248 6.443l25.68-4.998-4.888 99.115-27.646 5.38L76.87 70.122c-3.015-8.006-5.998-16.602-9.446-27.582l-.28.054c.64 11.527 1.098 20.614 1.053 29.36l.025 38.3-28.065 5.462M154.68 28.398l-7.59 54.068c-2.027 14.437 1.774 23.342 11.824 24.753 10.19 1.43 16.197-5.376 18.324-20.52l7.59-54.07 25.62 3.598-7.392 52.653c-4.134 29.44-20.94 42.236-47.692 38.48-26.185-3.676-37.907-19.9-33.595-50.614L129.06 24.8l25.62 3.598"/><path d="M204.114 14.023l61.66-5.14 1.746 20.934-35.886 2.99 1.483 17.802 33.75-2.814 1.733 20.792-33.75 2.812 3.04 36.456-25.777 2.148-8-95.98M295.908 73.69c0 18.014 7.863 29.166 20.302 29.166 12.438 0 19.73-12.153 19.73-29.453 0-16.585-7.434-29.167-19.874-29.167-12.295 0-20.158 11.724-20.158 29.453zm67.34-1.145c0 31.026-18.586 50.756-48.324 50.756-29.883 0-46.324-22.446-46.324-49.182 0-28.023 18.443-50.327 47.896-50.327 31.025 0 46.753 23.02 46.753 48.755z"/><path d="M377.02 50.317c0 18.015 7.864 29.167 20.302 29.167 12.44 0 19.73-12.153 19.73-29.453 0-16.584-7.433-29.166-19.872-29.166-12.296 0-20.16 11.724-20.16 29.453zm67.34-1.144c0 31.026-18.585 50.756-48.324 50.756-29.882 0-46.323-22.448-46.323-49.184C349.713 22.723 368.156.42 397.61.42c31.025 0 46.75 23.018 46.75 48.753z"/></g></svg>