<?xml version="1.0" encoding="UTF-8" standalone="no"?>
<svg width="44px" height="75px" viewBox="0 0 44 75" version="1.1" xmlns="http://www.w3.org/2000/svg" xmlns:xlink="http://www.w3.org/1999/xlink">
    <!-- Generator: Sketch 39.1 (31720) - http://www.bohemiancoding.com/sketch -->
    <title>Page 1</title>
    <desc>Created with Sketch.</desc>
    <defs></defs>
    <g id="Page-1" stroke="none" stroke-width="1" fill="none" fill-rule="evenodd">
        <g id="Partners-Desktop" transform="translate(-917.000000, -563.000000)">
            <g id="Page-1" transform="translate(918.000000, 564.000000)">
                <path d="M23.1273,64.6433 C23.1273,65.8703 22.1323,66.8643 20.9063,66.8643 C19.6793,66.8643 18.6843,65.8703 18.6843,64.6433 C18.6843,63.4163 19.6793,62.4223 20.9063,62.4223 C22.1323,62.4223 23.1273,63.4163 23.1273,64.6433" id="Fill-1" fill="#E86F69"></path>
                <path d="M0.25,57.2558 L41.562,57.2558" id="Stroke-3" stroke="#E86F69" stroke-width="2.5" stroke-linecap="round" stroke-linejoin="round"></path>
                <path d="M0.25,8.5774 L41.562,8.5774" id="Stroke-5" stroke="#E86F69" stroke-width="2.5" stroke-linecap="round" stroke-linejoin="round"></path>
                <path d="M41.5615,71.3379 C41.5615,71.8879 41.1115,72.3379 40.5615,72.3379 L1.2495,72.3379 C0.6995,72.3379 0.2495,71.8879 0.2495,71.3379 L0.2495,1.2499 C0.2495,0.6999 0.6995,0.2499 1.2495,0.2499 L40.5615,0.2499 C41.1115,0.2499 41.5615,0.6999 41.5615,1.2499 L41.5615,71.3379 L41.5615,71.3379 Z" id="Stroke-7" stroke="#E86F69" stroke-width="2.5" stroke-linecap="round" stroke-linejoin="round"></path>
            </g>
        </g>
    </g>
</svg>