<?xml version="1.0" encoding="utf-8"?>
<!-- Generator: Adobe Illustrator 19.2.1, SVG Export Plug-In . SVG Version: 6.00 Build 0)  -->
<svg version="1.1" xmlns="http://www.w3.org/2000/svg" xmlns:xlink="http://www.w3.org/1999/xlink" x="0px" y="0px" width="64px"
	 height="64px" viewBox="0 0 64 64" style="enable-background:new 0 0 64 64;" xml:space="preserve">
<style type="text/css">
	.st0{fill:none;stroke:#E9F6FD;stroke-width:1.5;stroke-linecap:round;stroke-linejoin:round;stroke-miterlimit:10;}
	.st1{fill:#E9F6FD;}
	.st2{fill:none;stroke:#E9F6FD;stroke-width:1.5;stroke-linejoin:round;stroke-miterlimit:10;}
	.st3{fill:none;stroke:#8979EA;stroke-width:1.5;stroke-linecap:round;stroke-linejoin:round;stroke-miterlimit:10;}
	.st4{fill:#8979EA;}
	.st5{fill:none;stroke:#E9F6FD;stroke-width:1.5;stroke-miterlimit:10;}
	.st6{fill:none;stroke:#E86F69;stroke-width:1.5;stroke-miterlimit:10;}
	.st7{fill:none;stroke:#E86F69;stroke-width:1.5;stroke-linecap:round;stroke-linejoin:round;}
	.st8{fill:#FFFFFF;stroke:#E86F69;stroke-width:1.5;stroke-linecap:round;stroke-linejoin:round;}
	.st9{fill:none;stroke:#6E6E6E;stroke-width:1.5285;stroke-linecap:round;stroke-linejoin:round;stroke-miterlimit:10;}
	.st10{fill:#E86F69;}
</style>
<g id="Layer_4">
</g>
<g id="Layer_7">
</g>
<g id="Layer_11">
</g>
<g id="Layer_1">
	<path class="st0" d="M44.2,61.3c-3.2,0-6.2-1.3-8.2-3.8c-1.8-2.3-2.8-8.2-3-11.9"/>
	<g>
		<path class="st4" d="M50.7,1.6c0.2,0,0.3,0.1,0.3,0.3c0,2.1-0.1,4-0.2,5.9c0,0.2,0.1,0.3,0.3,0.3c0,0,0,0,0,0
			c0.4,0,0.8-0.1,1.2-0.1c0.9,0,1.8,0.1,2.6,0.3c2,0.6,3.5,1.8,4.4,3.6c4.6,9.1-6.3,17.9-13.5,21.7c-0.8,0.4-1.7,0.8-2.5,1.2
			c-0.1,0-0.1,0.1-0.1,0.1c-4.2,6.5-8.8,8.6-9.4,8.8c0,0-0.1,0-0.1,0h-3.5c0,0-0.1,0-0.1,0c-0.6-0.2-5.2-2.4-9.4-8.8
			c0,0-0.1-0.1-0.1-0.1c-0.8-0.4-1.7-0.8-2.5-1.2C11,29.9,0.1,21.1,4.7,12C5.6,10.2,7.1,9,9.1,8.4c0.8-0.2,1.7-0.3,2.6-0.3
			c0.4,0,0.8,0,1.2,0.1c0,0,0,0,0,0c0.2,0,0.3-0.1,0.3-0.3C13.1,5.9,13,4,13,1.9c0-0.2,0.1-0.3,0.3-0.3H50.7 M46.2,30.4
			c0.1,0,0.1,0,0.2,0c5.9-3.6,13.9-10.5,10.6-17.1c-0.6-1.2-1.5-1.9-2.8-2.3c-0.6-0.2-1.2-0.2-1.9-0.2c-0.5,0-1,0-1.5,0.1
			c-0.1,0-0.2,0.1-0.3,0.3c-0.8,8-2.5,14.2-4.6,18.8C45.9,30.2,46.1,30.4,46.2,30.4 M17.8,30.4c0.2,0,0.4-0.2,0.3-0.4
			c-2.1-4.7-3.8-10.8-4.6-18.8c0-0.1-0.1-0.2-0.3-0.3c-0.5-0.1-1-0.1-1.5-0.1c-0.7,0-1.3,0.1-1.9,0.2c-1.3,0.4-2.2,1.1-2.8,2.3
			c-3.3,6.5,4.7,13.5,10.6,17.1C17.7,30.4,17.8,30.4,17.8,30.4 M50.7,0.1H13.3c-0.5,0-0.9,0.2-1.3,0.5c-0.3,0.3-0.5,0.8-0.5,1.3
			c0,1.6,0,3.1,0.1,4.7c-1.1,0-2.1,0.1-3,0.4c-2.4,0.7-4.2,2.2-5.3,4.4C-1.8,21.5,9.8,31,17.5,35.1c0.7,0.3,1.4,0.7,2.3,1.1
			c4.3,6.5,8.9,8.7,9.8,9.1c0.2,0.1,0.5,0.1,0.7,0.1h3.5c0.2,0,0.5,0,0.7-0.1c0.9-0.4,5.6-2.6,9.8-9.1c0.9-0.4,1.6-0.8,2.3-1.1
			c7.7-4,19.3-13.6,14.2-23.7c-1.1-2.2-2.9-3.7-5.3-4.4c-0.9-0.3-1.9-0.4-3-0.4c0.1-1.5,0.1-3.1,0.1-4.7c0-0.5-0.2-0.9-0.5-1.3
			C51.7,0.3,51.2,0.1,50.7,0.1L50.7,0.1z M52,12.2c0.1,0,0.2,0,0.3,0c0.6,0,1.1,0.1,1.5,0.2c0.9,0.2,1.4,0.7,1.8,1.5
			c2.2,4.2-1.8,9.2-6.9,13C50.3,22.6,51.4,17.6,52,12.2L52,12.2z M15.3,26.9c-5-3.7-9-8.7-6.9-13c0.4-0.8,1-1.3,1.8-1.5
			c0.4-0.1,0.9-0.2,1.5-0.2c0.1,0,0.2,0,0.3,0C12.7,17.6,13.8,22.6,15.3,26.9L15.3,26.9z"/>
	</g>
	<g>
		<path class="st3" d="M32.9,11.4l1.6,4.8c0.1,0.4,0.5,0.6,0.9,0.6h5c0.9,0,1.2,1.1,0.5,1.6l-4.1,3c-0.3,0.2-0.5,0.6-0.3,1l1.6,4.8
			c0.3,0.8-0.7,1.5-1.4,1l-4.1-3c-0.3-0.2-0.8-0.2-1.1,0l-4.1,3c-0.7,0.5-1.7-0.2-1.4-1l1.6-4.8c0.1-0.4,0-0.8-0.3-1l-4.1-3
			c-0.7-0.5-0.3-1.6,0.5-1.6h5c0.4,0,0.7-0.3,0.9-0.6l1.6-4.8C31.5,10.5,32.6,10.5,32.9,11.4z"/>
	</g>
	<path class="st3" d="M30.2,44.8c-0.2,3.7-1.2,9.6-3,11.9c-2,2.5-5,3.8-8.2,3.8"/>
	<path class="st3" d="M45.1,60.4c-3.2,0-6.2-1.3-8.2-3.8c-1.8-2.3-2.8-8.2-3-11.9"/>
	<g>
		<g>
			<polyline class="st3" points="19,60.4 19,62.9 45.1,62.9 45.1,60.4 			"/>
		</g>
	</g>
</g>
<g id="Layer_2">
</g>
<g id="Layer_3">
</g>
<g id="Layer_5">
</g>
<g id="Layer_6">
</g>
<g id="Layer_8">
</g>
<g id="Layer_9">
</g>
<g id="Layer_10">
</g>
<g id="Layer_12">
</g>
<g id="Layer_13">
</g>
<g id="Layer_14">
</g>
</svg>
