<?xml version="1.0" encoding="utf-8"?>
<!-- Generator: Adobe Illustrator 19.2.1, SVG Export Plug-In . SVG Version: 6.00 Build 0)  -->
<svg version="1.1" xmlns="http://www.w3.org/2000/svg" xmlns:xlink="http://www.w3.org/1999/xlink" x="0px" y="0px" width="64px"
	 height="64px" viewBox="0 0 64 64" style="enable-background:new 0 0 64 64;" xml:space="preserve">
<style type="text/css">
	.st0{fill:none;stroke:#E9F6FD;stroke-width:1.5;stroke-linecap:round;stroke-linejoin:round;stroke-miterlimit:10;}
	.st1{fill:#E9F6FD;}
	.st2{fill:none;stroke:#E9F6FD;stroke-width:1.5;stroke-linejoin:round;stroke-miterlimit:10;}
	.st3{fill:none;stroke:#8979EA;stroke-width:1.5;stroke-linecap:round;stroke-linejoin:round;stroke-miterlimit:10;}
	.st4{fill:#8979EA;}
	.st5{fill:none;stroke:#E9F6FD;stroke-width:1.5;stroke-miterlimit:10;}
	.st6{fill:none;stroke:#E86F69;stroke-width:1.5;stroke-miterlimit:10;}
	.st7{fill:none;stroke:#E86F69;stroke-width:1.5;stroke-linecap:round;stroke-linejoin:round;}
	.st8{fill:#FFFFFF;stroke:#E86F69;stroke-width:1.5;stroke-linecap:round;stroke-linejoin:round;}
	.st9{fill:none;stroke:#6E6E6E;stroke-width:1.5285;stroke-linecap:round;stroke-linejoin:round;stroke-miterlimit:10;}
	.st10{fill:#E86F69;}
</style>
<g id="Layer_4">
</g>
<g id="Layer_7">
</g>
<g id="Layer_11">
</g>
<g id="Layer_1">
</g>
<g id="Layer_2">
</g>
<g id="Layer_3">
</g>
<g id="Layer_5">
</g>
<g id="Layer_6">
</g>
<g id="Layer_8">
</g>
<g id="Layer_9">
</g>
<g id="Layer_10">
</g>
<g id="Layer_12">
</g>
<g id="Layer_13">
</g>
<g id="Layer_14">
	<g>
		<g>
			<path class="st2" d="M53.3,46.4l0.1-0.3c0-0.1,0.3-2,0.7-3c0.5-1.4,1.1-3.4,1.3-4.7c0.3-2.1,0.4-2.8,0.3-4.8
				c-0.1-1.2-0.4-2.2-0.9-2.7"/>
		</g>
	</g>
	<path class="st1" d="M44.4,15.3c-0.6,0-0.9,0-0.9-0.5s0.1-0.6,0.7-0.6c0.6,0,1.3-0.5,1.3-1.1V2.9c0-0.6-0.8-1.2-1.3-1.2
		c-0.6,0-0.7,0-0.7-0.5s1,0.2,1.5,0.2c1.7,0,3,0.1,3,1.8v9.5C48.1,14.4,46.1,15.3,44.4,15.3z"/>
	<path class="st1" d="M44.4,62.8c-0.6,0-0.9,0.2-0.9-0.4s0.1-0.3,0.6-0.3c0.6,0,1.4-0.9,1.4-1.5V50.5c0-0.6-0.8-1.2-1.3-1.2
		c-0.6,0-0.7,0-0.7-0.5s1,0.2,1.5,0.2c1.7,0,3,0.1,3,1.8v9.5C48.1,62,46.1,62.8,44.4,62.8z"/>
	<path class="st1" d="M57.4,33.2c-0.6,0-0.9,0-0.9-0.5s0.1-0.6,0.7-0.6c0.6,0,1.3-0.5,1.3-1.1V20.9c0-0.6-0.8-1.2-1.3-1.2
		c-0.6,0-0.7,0-0.7-0.5s1,0.2,1.5,0.2c1.7,0,3,0.1,3,1.8v9.5C61.1,32.3,59.1,33.2,57.4,33.2z"/>
	<path class="st3" d="M46.6,14.6h-42c-1.1,0-2-0.9-2-2V3.1c0-1.1,0.9-2,2-2h42c1.1,0,2,0.9,2,2v9.5C48.6,13.7,47.7,14.6,46.6,14.6z"
		/>
	<path class="st3" d="M46.6,62.8h-42c-1.1,0-2-0.9-2-2v-9.5c0-1.1,0.9-2,2-2h42c1.1,0,2,0.9,2,2v9.5C48.6,61.8,47.7,62.8,46.6,62.8z
		"/>
	<path class="st3" d="M39.6,32.8h-3.1H17.6c-1.1,0-2-0.9-2-2v-9.5c0-1.1,0.9-2,2-2h42c1.1,0,2,0.9,2,2v9.5c0,1.1-0.9,2-2,2h-2.1"/>
	<g>
		<g>
			<path class="st3" d="M57.3,33.6c-0.1-2-0.9-3.2-2-3.2c-0.6,0-1,0.1-1.2,0.2c-0.2-0.7-0.7-1.5-1.8-1.6c-0.6,0-1,0.1-1.3,0.3
				c-0.1-0.3-0.3-0.6-0.5-0.8c-0.4-0.4-0.8-0.6-1.4-0.6c-0.4,0-0.7,0-1,0.1v-3.5c0-1-0.8-1.7-2.1-1.7c-1.2,0-2,0.7-2,1.7v8.5
				c-0.5-0.5-1.1-1-1.8-1.2c-0.3-0.1-0.6-0.1-0.8-0.1c-1.1,0-1.6,0.6-1.7,1.2c-0.1,0.8,1.2,2.7,1.3,2.9c0.1,0.2,1.1,1.8,2.4,4.4
				c0.5,1,0.9,1.8,1.1,2.4c0.3,0.7,0.4,2.3,0.4,2.6l0.2,1.1l9.8,0.1l0.1-0.3c0-0.1,0.3-2,0.7-3c0.5-1.4,1.1-3.4,1.3-4.7
				C57.3,36.3,57.5,35.6,57.3,33.6z"/>
		</g>
		<line class="st3" x1="48" y1="28" x2="48" y2="33"/>
		<line class="st3" x1="50.9" y1="29.2" x2="50.9" y2="33"/>
		<line class="st3" x1="54" y1="30.4" x2="54" y2="33.9"/>
	</g>
</g>
</svg>
