<?xml version="1.0" encoding="utf-8"?>
<!-- Generator: Adobe Illustrator 19.2.1, SVG Export Plug-In . SVG Version: 6.00 Build 0)  -->
<svg version="1.1" xmlns="http://www.w3.org/2000/svg" xmlns:xlink="http://www.w3.org/1999/xlink" x="0px" y="0px" width="39px"
	 height="33px" viewBox="0 0 39 33" style="enable-background:new 0 0 39 33;" xml:space="preserve">
<style type="text/css">
	.st0{fill:none;stroke:#E9F6FD;stroke-width:1.5;stroke-linecap:round;stroke-linejoin:round;stroke-miterlimit:10;}
	.st1{fill:#E9F6FD;}
	.st2{fill:none;stroke:#E9F6FD;stroke-width:1.5;stroke-linejoin:round;stroke-miterlimit:10;}
	.st3{fill:none;stroke:#8979EA;stroke-width:1.5;stroke-linecap:round;stroke-linejoin:round;stroke-miterlimit:10;}
	.st4{fill:#8979EA;}
	.st5{fill:none;stroke:#E9F6FD;stroke-width:1.5;stroke-miterlimit:10;}
	.st6{fill:none;stroke:#E86F69;stroke-width:1.5;stroke-miterlimit:10;}
	.st7{fill:none;stroke:#E86F69;stroke-width:1.5;stroke-linecap:round;stroke-linejoin:round;}
	.st8{fill:#FFFFFF;stroke:#E86F69;stroke-width:1.5;stroke-linecap:round;stroke-linejoin:round;}
	.st9{fill:none;stroke:#6E6E6E;stroke-width:1.5285;stroke-linecap:round;stroke-linejoin:round;stroke-miterlimit:10;}
	.st10{fill:#E86F69;}
</style>
<g id="Layer_4">
</g>
<g id="Layer_7">
</g>
<g id="Layer_11">
</g>
<g id="Layer_1">
</g>
<g id="Layer_2">
</g>
<g id="Layer_3">
</g>
<g id="Layer_5">
</g>
<g id="Layer_6">
</g>
<g id="Layer_8">
</g>
<g id="Layer_9">
</g>
<g id="Layer_10">
</g>
<g id="Layer_12">
</g>
<g id="Layer_13">
</g>
<g id="Layer_14">
	<circle class="st7" cx="19.5" cy="16.5" r="15.4"/>
	<g>
		<path class="st10" d="M19.1,23.1c-0.4,0-0.7,0.1-1,0.4s-0.3,0.5-0.3,0.9c0,0.4,0.1,0.6,0.3,0.9c0.2,0.2,0.5,0.3,1,0.3
			s0.7-0.1,1-0.3c0.2-0.2,0.3-0.5,0.3-0.9c0-0.4-0.1-0.7-0.3-0.9S19.5,23.1,19.1,23.1z"/>
		<path class="st10" d="M22.8,9.4c-0.8-0.8-2-1.2-3.5-1.2c-1.4,0-2.6,0.4-3.5,1.2c-0.7,0.6-1.1,1.3-1.3,2.2c0,0.2,0,0.8,0,0.8
			c0.1,0.5,0.5,0.8,1,0.8c1.2,0,1.1-0.8,1.1-0.8c0-0.7,0.2-1.3,0.7-1.7s1.1-0.6,1.9-0.6c0.8,0,1.4,0.2,1.9,0.7s0.6,1.1,0.6,1.9
			c0,0.9-0.3,1.6-1,2.4l-1.5,1.6c-0.6,0.7-1,1.3-1.2,1.8c-0.2,0.5-0.3,1.3-0.3,2.2H20c0-1.2,0.3-2.1,0.9-2.7l1.3-1.3
			c1.3-1.3,1.9-2.7,1.9-4C24.1,11.3,23.7,10.2,22.8,9.4z"/>
	</g>
</g>
</svg>
